<?xml version="1.0" encoding="UTF-8"?>
<!DOCTYPE svg PUBLIC "-//W3C//DTD SVG 1.1//EN" "http://www.w3.org/Graphics/SVG/1.1/DTD/svg11.dtd">
<svg xmlns="http://www.w3.org/2000/svg" version="1.1" width="1080px" height="1080px" style="shape-rendering:geometricPrecision; text-rendering:geometricPrecision; image-rendering:optimizeQuality; fill-rule:evenodd; clip-rule:evenodd" xmlns:xlink="http://www.w3.org/1999/xlink">
<g><path style="opacity:0.5" fill="#a6a6a6" d="M 376.5,347.5 C 376.5,348.167 376.5,348.833 376.5,349.5C 373.287,349.81 370.287,349.477 367.5,348.5C 370.287,347.523 373.287,347.19 376.5,347.5 Z"/></g>
<g><path style="opacity:0.5" fill="#b7b7b7" d="M 359.5,348.5 C 359.5,349.167 359.5,349.833 359.5,350.5C 357.901,350.768 356.568,350.434 355.5,349.5C 356.568,348.566 357.901,348.232 359.5,348.5 Z"/></g>
<g><path style="opacity:0.667" fill="#898989" d="M 376.5,347.5 C 384.684,347.174 392.684,347.508 400.5,348.5C 392.684,349.492 384.684,349.826 376.5,349.5C 376.5,348.833 376.5,348.167 376.5,347.5 Z"/></g>
<g><path style="opacity:0.5" fill="#848484" d="M 404.5,348.5 C 405.833,348.5 407.167,348.5 408.5,348.5C 408.5,349.167 408.5,349.833 408.5,350.5C 406.517,350.843 405.183,350.176 404.5,348.5 Z"/></g>
<g><path style="opacity:0.5" fill="#c5c5c5" d="M 408.5,348.5 C 410.099,348.232 411.432,348.566 412.5,349.5C 411.432,350.434 410.099,350.768 408.5,350.5C 408.5,349.833 408.5,349.167 408.5,348.5 Z"/></g>
<g><path style="opacity:0.5" fill="#7c7c7c" d="M 353.5,349.5 C 353.38,350.586 352.713,351.253 351.5,351.5C 350.584,351.457 349.917,351.124 349.5,350.5C 350.568,349.566 351.901,349.232 353.5,349.5 Z"/></g>
<g><path style="opacity:0.667" fill="#676767" d="M 359.5,348.5 C 361.167,348.5 362.833,348.5 364.5,348.5C 363.448,350.256 361.781,350.923 359.5,350.5C 359.5,349.833 359.5,349.167 359.5,348.5 Z"/></g>
<g><path style="opacity:0.997" fill="#2f2f2f" d="M 364.5,348.5 C 365.5,348.5 366.5,348.5 367.5,348.5C 370.287,349.477 373.287,349.81 376.5,349.5C 384.684,349.826 392.684,349.492 400.5,348.5C 401.833,348.5 403.167,348.5 404.5,348.5C 405.183,350.176 406.517,350.843 408.5,350.5C 410.099,350.768 411.432,350.434 412.5,349.5C 413.833,349.5 415.167,349.5 416.5,349.5C 416.5,350.833 417.167,351.5 418.5,351.5C 420.611,352.742 422.611,352.742 424.5,351.5C 425.167,351.5 425.833,351.5 426.5,351.5C 427.719,353.301 429.552,354.301 432,354.5C 432.765,354.43 433.265,354.097 433.5,353.5C 434.167,353.5 434.833,353.5 435.5,353.5C 435.711,355.424 436.377,355.757 437.5,354.5C 438.167,354.5 438.833,354.5 439.5,354.5C 468.277,363.596 493.611,378.596 515.5,399.5C 517.833,401.5 520.167,403.5 522.5,405.5C 544.126,429.229 559.459,456.729 568.5,488C 568.836,489.03 569.503,489.53 570.5,489.5C 570.5,490.167 570.5,490.833 570.5,491.5C 569.243,492.623 569.576,493.289 571.5,493.5C 571.5,494.167 571.5,494.833 571.5,495.5C 570.243,496.623 570.576,497.289 572.5,497.5C 572.5,498.167 572.5,498.833 572.5,499.5C 571.243,500.623 571.576,501.289 573.5,501.5C 573.5,502.167 573.5,502.833 573.5,503.5C 572.876,503.917 572.543,504.584 572.5,505.5C 573.231,508.653 573.897,511.819 574.5,515C 574.684,516.376 575.351,517.209 576.5,517.5C 576.5,518.5 576.5,519.5 576.5,520.5C 575.876,520.917 575.543,521.584 575.5,522.5C 575.747,523.713 576.414,524.38 577.5,524.5C 577.5,526.5 577.5,528.5 577.5,530.5C 576.527,532.948 576.194,535.615 576.5,538.5C 576.5,545.833 576.5,553.167 576.5,560.5C 576.216,562.415 576.549,564.081 577.5,565.5C 577.5,567.5 577.5,569.5 577.5,571.5C 575.744,572.552 575.077,574.219 575.5,576.5C 557.833,576.5 540.167,576.5 522.5,576.5C 522.768,574.901 522.434,573.568 521.5,572.5C 521.5,570.833 521.5,569.167 521.5,567.5C 522.822,564.232 523.489,560.565 523.5,556.5C 523.438,552.118 523.105,547.784 522.5,543.5C 523.055,539.988 522.388,536.988 520.5,534.5C 520.5,533.5 520.5,532.5 520.5,531.5C 521.152,530.551 521.486,529.385 521.5,528C 520.721,522.825 519.887,517.658 519,512.5C 518.878,510.563 518.045,509.23 516.5,508.5C 516.5,507.833 516.5,507.167 516.5,506.5C 517.097,506.265 517.43,505.765 517.5,505C 516.589,501.855 515.755,498.688 515,495.5C 514.764,493.881 513.931,492.881 512.5,492.5C 512.5,491.833 512.5,491.167 512.5,490.5C 510.05,477.831 505.717,465.498 499.5,453.5C 499.043,452.702 498.376,452.369 497.5,452.5C 496.89,451.609 496.557,450.609 496.5,449.5C 484.074,422.864 465.074,401.364 439.5,385C 431.44,380.814 423.107,377.314 414.5,374.5C 413.893,374.624 413.56,374.957 413.5,375.5C 412.833,375.5 412.167,375.5 411.5,375.5C 411.289,373.576 410.623,373.243 409.5,374.5C 408.5,374.5 407.5,374.5 406.5,374.5C 406.289,372.576 405.623,372.243 404.5,373.5C 403.5,373.5 402.5,373.5 401.5,373.5C 401.38,372.414 400.713,371.747 399.5,371.5C 398.584,371.543 397.917,371.876 397.5,372.5C 396.167,372.5 394.833,372.5 393.5,372.5C 392.486,371.235 390.986,370.569 389,370.5C 387.293,370.508 385.793,370.842 384.5,371.5C 382.833,371.5 381.167,371.5 379.5,371.5C 377.866,370.839 376.033,370.506 374,370.5C 371.705,370.547 369.871,371.213 368.5,372.5C 367.5,372.5 366.5,372.5 365.5,372.5C 360.039,371.742 354.539,372.409 349,374.5C 347.97,374.836 347.47,375.503 347.5,376.5C 346.833,376.5 346.167,376.5 345.5,376.5C 345.44,375.957 345.107,375.624 344.5,375.5C 322.39,382.4 304.724,394.734 291.5,412.5C 290.5,413.833 289.5,415.167 288.5,416.5C 286.629,416.859 285.129,417.859 284,419.5C 270.445,438.296 260.612,458.962 254.5,481.5C 254.624,482.107 254.957,482.44 255.5,482.5C 255.5,483.167 255.5,483.833 255.5,484.5C 254.503,484.47 253.836,484.97 253.5,486C 251.1,493.195 250.1,500.362 250.5,507.5C 250.5,508.5 250.5,509.5 250.5,510.5C 249.307,510.97 248.64,511.97 248.5,513.5C 248.52,514.726 248.853,515.726 249.5,516.5C 249.5,518.167 249.5,519.833 249.5,521.5C 248.206,523.048 247.539,525.048 247.5,527.5C 247.505,529.696 247.838,531.696 248.5,533.5C 248.5,537.167 248.5,540.833 248.5,544.5C 247.84,545.964 247.507,547.631 247.5,549.5C 247.556,551.64 248.223,553.306 249.5,554.5C 249.5,556.833 249.5,559.167 249.5,561.5C 248.876,561.917 248.543,562.584 248.5,563.5C 248.747,564.713 249.414,565.38 250.5,565.5C 250.5,567.167 250.5,568.833 250.5,570.5C 249.258,572.389 249.258,574.389 250.5,576.5C 232.488,576.833 214.488,576.5 196.5,575.5C 196.137,574.817 195.804,574.15 195.5,573.5C 195.5,571.833 195.5,570.167 195.5,568.5C 195.843,566.517 195.176,565.183 193.5,564.5C 193.5,563.167 193.5,561.833 193.5,560.5C 194.833,552.5 194.833,544.5 193.5,536.5C 193.5,535.167 193.5,533.833 193.5,532.5C 195.176,531.817 195.843,530.483 195.5,528.5C 195.768,526.901 195.434,525.568 194.5,524.5C 194.5,523.167 194.5,521.833 194.5,520.5C 195.649,520.209 196.316,519.376 196.5,518C 197.927,508.698 199.927,499.531 202.5,490.5C 202.376,489.893 202.043,489.56 201.5,489.5C 201.5,488.833 201.5,488.167 201.5,487.5C 202.497,487.53 203.164,487.03 203.5,486C 223.635,421.372 265.302,377.539 328.5,354.5C 329.167,354.5 329.833,354.5 330.5,354.5C 330.735,355.097 331.235,355.43 332,355.5C 334.135,354.873 336.302,354.373 338.5,354C 340.119,353.764 341.119,352.931 341.5,351.5C 342.167,351.5 342.833,351.5 343.5,351.5C 343.917,352.124 344.584,352.457 345.5,352.5C 346.713,352.253 347.38,351.586 347.5,350.5C 348.167,350.5 348.833,350.5 349.5,350.5C 349.917,351.124 350.584,351.457 351.5,351.5C 352.713,351.253 353.38,350.586 353.5,349.5C 354.167,349.5 354.833,349.5 355.5,349.5C 356.568,350.434 357.901,350.768 359.5,350.5C 361.781,350.923 363.448,350.256 364.5,348.5 Z M 379.5,371.5 C 381.167,371.5 382.833,371.5 384.5,371.5C 387.287,372.477 390.287,372.81 393.5,372.5C 394.833,372.5 396.167,372.5 397.5,372.5C 398.568,373.434 399.901,373.768 401.5,373.5C 402.5,373.5 403.5,373.5 404.5,373.5C 404.842,374.338 405.508,374.672 406.5,374.5C 407.5,374.5 408.5,374.5 409.5,374.5C 409.842,375.338 410.508,375.672 411.5,375.5C 412.167,375.5 412.833,375.5 413.5,375.5C 439.674,384.028 461.174,399.361 478,421.5C 484.439,430.727 490.605,440.06 496.5,449.5C 496.557,450.609 496.89,451.609 497.5,452.5C 503.304,464.925 508.304,477.592 512.5,490.5C 512.5,491.167 512.5,491.833 512.5,492.5C 513.544,497.356 514.877,502.022 516.5,506.5C 516.5,507.167 516.5,507.833 516.5,508.5C 517.745,516.312 519.079,523.978 520.5,531.5C 520.5,532.5 520.5,533.5 520.5,534.5C 520.19,537.713 520.523,540.713 521.5,543.5C 521.5,551.5 521.5,559.5 521.5,567.5C 521.5,569.167 521.5,570.833 521.5,572.5C 520.596,573.209 520.263,574.209 520.5,575.5C 430.833,575.5 341.167,575.5 251.5,575.5C 251.784,573.585 251.451,571.919 250.5,570.5C 250.5,568.833 250.5,567.167 250.5,565.5C 250.768,563.901 250.434,562.568 249.5,561.5C 249.5,559.167 249.5,556.833 249.5,554.5C 249.813,550.958 249.479,547.625 248.5,544.5C 248.5,540.833 248.5,537.167 248.5,533.5C 249.483,529.702 249.817,525.702 249.5,521.5C 249.5,519.833 249.5,518.167 249.5,516.5C 250.461,514.735 250.795,512.735 250.5,510.5C 250.5,509.5 250.5,508.5 250.5,507.5C 252.046,499.925 253.713,492.259 255.5,484.5C 255.5,483.833 255.5,483.167 255.5,482.5C 262.244,458.345 273.244,436.345 288.5,416.5C 289.5,415.167 290.5,413.833 291.5,412.5C 306.575,395.973 324.575,383.973 345.5,376.5C 346.167,376.5 346.833,376.5 347.5,376.5C 353.588,375.018 359.588,373.685 365.5,372.5C 366.5,372.5 367.5,372.5 368.5,372.5C 372.371,372.815 376.038,372.482 379.5,371.5 Z"/></g>
<g><path style="opacity:0.553" fill="#b2b2b2" d="M 416.5,349.5 C 417.492,349.328 418.158,349.662 418.5,350.5C 418.5,350.833 418.5,351.167 418.5,351.5C 417.167,351.5 416.5,350.833 416.5,349.5 Z"/></g>
<g><path style="opacity:0.667" fill="#898989" d="M 347.5,350.5 C 347.38,351.586 346.713,352.253 345.5,352.5C 344.584,352.457 343.917,352.124 343.5,351.5C 344.568,350.566 345.901,350.232 347.5,350.5 Z"/></g>
<g><path style="opacity:0.667" fill="#6f6f6f" d="M 418.5,351.5 C 418.5,351.167 418.5,350.833 418.5,350.5C 420.735,350.205 422.735,350.539 424.5,351.5C 422.611,352.742 420.611,352.742 418.5,351.5 Z"/></g>
<g><path style="opacity:0.667" fill="#959595" d="M 426.5,351.5 C 429.067,351.721 431.401,352.388 433.5,353.5C 433.265,354.097 432.765,354.43 432,354.5C 429.552,354.301 427.719,353.301 426.5,351.5 Z"/></g>
<g><path style="opacity:0.5" fill="#919191" d="M 435.5,353.5 C 436.492,353.328 437.158,353.662 437.5,354.5C 436.377,355.757 435.711,355.424 435.5,353.5 Z"/></g>
<g><path style="opacity:0.667" fill="#8f8f8f" d="M 341.5,351.5 C 341.119,352.931 340.119,353.764 338.5,354C 336.302,354.373 334.135,354.873 332,355.5C 331.235,355.43 330.735,355.097 330.5,354.5C 333.961,353.134 337.627,352.134 341.5,351.5 Z"/></g>
<g><path style="opacity:0.5" fill="#aeaeae" d="M 379.5,371.5 C 376.038,372.482 372.371,372.815 368.5,372.5C 369.871,371.213 371.705,370.547 374,370.5C 376.033,370.506 377.866,370.839 379.5,371.5 Z"/></g>
<g><path style="opacity:0.333" fill="#b5b5b5" d="M 393.5,372.5 C 390.287,372.81 387.287,372.477 384.5,371.5C 385.793,370.842 387.293,370.508 389,370.5C 390.986,370.569 392.486,371.235 393.5,372.5 Z"/></g>
<g><path style="opacity:0.22" fill="#b8b8b8" d="M 401.5,373.5 C 399.901,373.768 398.568,373.434 397.5,372.5C 397.917,371.876 398.584,371.543 399.5,371.5C 400.713,371.747 401.38,372.414 401.5,373.5 Z"/></g>
<g><path style="opacity:0.22" fill="#888888" d="M 439.5,354.5 C 469.145,362.538 494.812,377.205 516.5,398.5C 515.833,398.5 515.5,398.833 515.5,399.5C 493.611,378.596 468.277,363.596 439.5,354.5 Z"/></g>
<g><path style="opacity:0.22" fill="#9c9c9c" d="M 365.5,372.5 C 359.588,373.685 353.588,375.018 347.5,376.5C 347.47,375.503 347.97,374.836 349,374.5C 354.539,372.409 360.039,371.742 365.5,372.5 Z"/></g>
<g><path style="opacity:0.22" fill="#b4b4b4" d="M 406.5,374.5 C 405.508,374.672 404.842,374.338 404.5,373.5C 405.623,372.243 406.289,372.576 406.5,374.5 Z"/></g>
<g><path style="opacity:0.22" fill="#a5a5a5" d="M 411.5,375.5 C 410.508,375.672 409.842,375.338 409.5,374.5C 410.623,373.243 411.289,373.576 411.5,375.5 Z"/></g>
<g><path style="opacity:0.484" fill="#c3c3c3" d="M 673.5,381.5 C 672.833,381.5 672.167,381.5 671.5,381.5C 667.03,380.514 662.363,380.181 657.5,380.5C 657.5,380.167 657.5,379.833 657.5,379.5C 661.981,378.352 666.648,378.185 671.5,379C 672.381,379.708 673.047,380.542 673.5,381.5 Z"/></g>
<g><path style="opacity:0.997" fill="#2f2f2f" d="M 657.5,380.5 C 662.363,380.181 667.03,380.514 671.5,381.5C 697.028,446.083 722.361,510.749 747.5,575.5C 729.931,576.824 712.264,576.824 694.5,575.5C 681.551,538.94 668.051,502.606 654,466.5C 639.963,502.585 626.463,538.918 613.5,575.5C 604.167,576.833 594.833,576.833 585.5,575.5C 590.167,563.167 594.833,550.833 599.5,538.5C 599.376,537.893 599.043,537.56 598.5,537.5C 598.5,537.167 598.5,536.833 598.5,536.5C 600.284,535.426 601.451,533.76 602,531.5C 607.068,517.462 612.235,503.462 617.5,489.5C 617.376,488.893 617.043,488.56 616.5,488.5C 616.5,488.167 616.5,487.833 616.5,487.5C 617.75,487.423 618.583,486.756 619,485.5C 622.872,474.051 627.038,462.718 631.5,451.5C 631.376,450.893 631.043,450.56 630.5,450.5C 630.5,450.167 630.5,449.833 630.5,449.5C 632.881,447.088 634.548,444.088 635.5,440.5C 635.376,439.893 635.043,439.56 634.5,439.5C 634.5,439.167 634.5,438.833 634.5,438.5C 635.75,438.423 636.583,437.756 637,436.5C 642.402,421.462 647.902,406.462 653.5,391.5C 653.376,390.893 653.043,390.56 652.5,390.5C 652.5,390.167 652.5,389.833 652.5,389.5C 653.376,389.631 654.043,389.298 654.5,388.5C 655.508,385.805 656.508,383.138 657.5,380.5 Z M 653.5,469.5 C 667.02,504.559 680.02,539.893 692.5,575.5C 666.825,575.833 641.158,575.5 615.5,574.5C 628.177,539.465 640.844,504.465 653.5,469.5 Z"/></g>
<g><path style="opacity:0.5" fill="#858585" d="M 657.5,379.5 C 657.5,379.833 657.5,380.167 657.5,380.5C 656.508,383.138 655.508,385.805 654.5,388.5C 654.043,389.298 653.376,389.631 652.5,389.5C 653.421,385.701 655.088,382.368 657.5,379.5 Z"/></g>
<g><path style="opacity:0.333" fill="#8f8f8f" d="M 345.5,376.5 C 324.575,383.973 306.575,395.973 291.5,412.5C 304.724,394.734 322.39,382.4 344.5,375.5C 345.107,375.624 345.44,375.957 345.5,376.5 Z"/></g>
<g><path style="opacity:0.333" fill="#b9b9b9" d="M 515.5,399.5 C 515.5,398.833 515.833,398.5 516.5,398.5C 518.833,400.167 520.833,402.167 522.5,404.5C 522.5,404.833 522.5,405.167 522.5,405.5C 520.167,403.5 517.833,401.5 515.5,399.5 Z"/></g>
<g><path style="opacity:0.22" fill="#888888" d="M 671.5,381.5 C 672.167,381.5 672.833,381.5 673.5,381.5C 698.32,445.145 723.154,508.812 748,572.5C 750.639,574.424 752.805,576.758 754.5,579.5C 754.167,579.5 753.833,579.5 753.5,579.5C 752.221,578.032 750.554,577.365 748.5,577.5C 748.672,576.508 748.338,575.842 747.5,575.5C 722.361,510.749 697.028,446.083 671.5,381.5 Z"/></g>
<g><path style="opacity:0.333" fill="#868686" d="M 652.5,390.5 C 653.043,390.56 653.376,390.893 653.5,391.5C 647.902,406.462 642.402,421.462 637,436.5C 636.583,437.756 635.75,438.423 634.5,438.5C 640.325,422.347 646.325,406.347 652.5,390.5 Z"/></g>
<g><path style="opacity:0.667" fill="#858585" d="M 496.5,449.5 C 490.605,440.06 484.439,430.727 478,421.5C 461.174,399.361 439.674,384.028 413.5,375.5C 413.56,374.957 413.893,374.624 414.5,374.5C 423.107,377.314 431.44,380.814 439.5,385C 465.074,401.364 484.074,422.864 496.5,449.5 Z"/></g>
<g><path style="opacity:0.443" fill="#868686" d="M 328.5,354.5 C 265.302,377.539 223.635,421.372 203.5,486C 203.164,487.03 202.497,487.53 201.5,487.5C 217.818,431.023 252.151,389.523 304.5,363C 312.334,359.667 320.334,356.833 328.5,354.5 Z"/></g>
<g><path style="opacity:0.443" fill="#8d8d8d" d="M 288.5,416.5 C 273.244,436.345 262.244,458.345 255.5,482.5C 254.957,482.44 254.624,482.107 254.5,481.5C 260.612,458.962 270.445,438.296 284,419.5C 285.129,417.859 286.629,416.859 288.5,416.5 Z"/></g>
<g><path style="opacity:0.333" fill="#838383" d="M 634.5,439.5 C 635.043,439.56 635.376,439.893 635.5,440.5C 634.548,444.088 632.881,447.088 630.5,449.5C 631.658,446.011 632.991,442.678 634.5,439.5 Z"/></g>
<g><path style="opacity:0.443" fill="#959595" d="M 497.5,452.5 C 498.376,452.369 499.043,452.702 499.5,453.5C 505.717,465.498 510.05,477.831 512.5,490.5C 508.304,477.592 503.304,464.925 497.5,452.5 Z"/></g>
<g><path style="opacity:0.333" fill="#878787" d="M 522.5,404.5 C 545.444,428.702 561.444,457.035 570.5,489.5C 569.503,489.53 568.836,489.03 568.5,488C 559.459,456.729 544.126,429.229 522.5,405.5C 522.5,405.167 522.5,404.833 522.5,404.5 Z"/></g>
<g><path style="opacity:0.443" fill="#868686" d="M 630.5,450.5 C 631.043,450.56 631.376,450.893 631.5,451.5C 627.038,462.718 622.872,474.051 619,485.5C 618.583,486.756 617.75,487.423 616.5,487.5C 620.796,474.936 625.462,462.602 630.5,450.5 Z"/></g>
<g><path style="opacity:0.5" fill="#989898" d="M 570.5,491.5 C 571.338,491.842 571.672,492.508 571.5,493.5C 569.576,493.289 569.243,492.623 570.5,491.5 Z"/></g>
<g><path style="opacity:0.5" fill="#8c8c8c" d="M 255.5,484.5 C 253.713,492.259 252.046,499.925 250.5,507.5C 250.1,500.362 251.1,493.195 253.5,486C 253.836,484.97 254.503,484.47 255.5,484.5 Z"/></g>
<g><path style="opacity:0.5" fill="#989898" d="M 512.5,492.5 C 513.931,492.881 514.764,493.881 515,495.5C 515.755,498.688 516.589,501.855 517.5,505C 517.43,505.765 517.097,506.265 516.5,506.5C 514.877,502.022 513.544,497.356 512.5,492.5 Z"/></g>
<g><path style="opacity:0.5" fill="#909090" d="M 571.5,495.5 C 572.338,495.842 572.672,496.508 572.5,497.5C 570.576,497.289 570.243,496.623 571.5,495.5 Z"/></g>
<g><path style="opacity:0.333" fill="#909090" d="M 201.5,489.5 C 202.043,489.56 202.376,489.893 202.5,490.5C 199.927,499.531 197.927,508.698 196.5,518C 196.316,519.376 195.649,520.209 194.5,520.5C 195.705,509.793 198.039,499.459 201.5,489.5 Z"/></g>
<g><path style="opacity:0.333" fill="#8b8b8b" d="M 572.5,499.5 C 573.338,499.842 573.672,500.508 573.5,501.5C 571.576,501.289 571.243,500.623 572.5,499.5 Z"/></g>
<g><path style="opacity:0.5" fill="#868686" d="M 573.5,503.5 C 574.99,507.942 575.99,512.609 576.5,517.5C 575.351,517.209 574.684,516.376 574.5,515C 573.897,511.819 573.231,508.653 572.5,505.5C 572.543,504.584 572.876,503.917 573.5,503.5 Z"/></g>
<g><path style="opacity:0.5" fill="#878787" d="M 616.5,488.5 C 617.043,488.56 617.376,488.893 617.5,489.5C 612.235,503.462 607.068,517.462 602,531.5C 601.451,533.76 600.284,535.426 598.5,536.5C 604.325,520.347 610.325,504.347 616.5,488.5 Z"/></g>
<g><path style="opacity:0.5" fill="#a6a6a6" d="M 250.5,510.5 C 250.795,512.735 250.461,514.735 249.5,516.5C 248.853,515.726 248.52,514.726 248.5,513.5C 248.64,511.97 249.307,510.97 250.5,510.5 Z"/></g>
<g><path style="opacity:0.5" fill="#a6a6a6" d="M 576.5,520.5 C 577.434,521.568 577.768,522.901 577.5,524.5C 576.414,524.38 575.747,523.713 575.5,522.5C 575.543,521.584 575.876,520.917 576.5,520.5 Z"/></g>
<g><path style="opacity:0.5" fill="#aeaeae" d="M 194.5,524.5 C 195.434,525.568 195.768,526.901 195.5,528.5C 194.833,528.5 194.167,528.5 193.5,528.5C 193.232,526.901 193.566,525.568 194.5,524.5 Z"/></g>
<g><path style="opacity:0.556" fill="#bdbdbd" d="M 249.5,521.5 C 249.817,525.702 249.483,529.702 248.5,533.5C 247.838,531.696 247.505,529.696 247.5,527.5C 247.539,525.048 248.206,523.048 249.5,521.5 Z"/></g>
<g><path style="opacity:0.5" fill="#8f8f8f" d="M 516.5,508.5 C 518.045,509.23 518.878,510.563 519,512.5C 519.887,517.658 520.721,522.825 521.5,528C 521.486,529.385 521.152,530.551 520.5,531.5C 519.079,523.978 517.745,516.312 516.5,508.5 Z"/></g>
<g><path style="opacity:0.5" fill="#6b6b6b" d="M 193.5,528.5 C 194.167,528.5 194.833,528.5 195.5,528.5C 195.843,530.483 195.176,531.817 193.5,532.5C 193.5,531.167 193.5,529.833 193.5,528.5 Z"/></g>
<g><path style="opacity:0.5" fill="#8e8e8e" d="M 577.5,530.5 C 578.473,532.948 578.806,535.615 578.5,538.5C 577.833,538.5 577.167,538.5 576.5,538.5C 576.194,535.615 576.527,532.948 577.5,530.5 Z"/></g>
<g><path style="opacity:0.5" fill="#b6b6b6" d="M 520.5,534.5 C 522.388,536.988 523.055,539.988 522.5,543.5C 522.167,543.5 521.833,543.5 521.5,543.5C 520.523,540.713 520.19,537.713 520.5,534.5 Z"/></g>
<g><path style="opacity:0.5" fill="#595959" d="M 576.5,538.5 C 577.167,538.5 577.833,538.5 578.5,538.5C 578.5,545.833 578.5,553.167 578.5,560.5C 577.833,560.5 577.167,560.5 576.5,560.5C 576.5,553.167 576.5,545.833 576.5,538.5 Z"/></g>
<g><path style="opacity:0.444" fill="#bababa" d="M 193.5,536.5 C 194.833,544.5 194.833,552.5 193.5,560.5C 192.167,552.5 192.167,544.5 193.5,536.5 Z"/></g>
<g><path style="opacity:0.333" fill="#ababab" d="M 248.5,544.5 C 249.479,547.625 249.813,550.958 249.5,554.5C 248.223,553.306 247.556,551.64 247.5,549.5C 247.507,547.631 247.84,545.964 248.5,544.5 Z"/></g>
<g><path style="opacity:0.524" fill="#6d6d6d" d="M 521.5,543.5 C 521.833,543.5 522.167,543.5 522.5,543.5C 523.105,547.784 523.438,552.118 523.5,556.5C 523.489,560.565 522.822,564.232 521.5,567.5C 521.5,559.5 521.5,551.5 521.5,543.5 Z"/></g>
<g><path style="opacity:0.5" fill="#bdbdbd" d="M 576.5,560.5 C 577.167,560.5 577.833,560.5 578.5,560.5C 578.784,562.415 578.451,564.081 577.5,565.5C 576.549,564.081 576.216,562.415 576.5,560.5 Z"/></g>
<g><path style="opacity:0.333" fill="#9f9f9f" d="M 249.5,561.5 C 250.434,562.568 250.768,563.901 250.5,565.5C 249.414,565.38 248.747,564.713 248.5,563.5C 248.543,562.584 248.876,561.917 249.5,561.5 Z"/></g>
<g><path style="opacity:0.5" fill="#7a7a7a" d="M 193.5,564.5 C 195.176,565.183 195.843,566.517 195.5,568.5C 194.833,568.5 194.167,568.5 193.5,568.5C 193.5,567.167 193.5,565.833 193.5,564.5 Z"/></g>
<g><path style="opacity:0.5" fill="#bfbfbf" d="M 193.5,568.5 C 194.167,568.5 194.833,568.5 195.5,568.5C 195.5,570.167 195.5,571.833 195.5,573.5C 195.167,573.5 194.833,573.5 194.5,573.5C 193.549,572.081 193.216,570.415 193.5,568.5 Z"/></g>
<g><path style="opacity:0.501" fill="#878787" d="M 250.5,570.5 C 251.451,571.919 251.784,573.585 251.5,575.5C 341.167,575.5 430.833,575.5 520.5,575.5C 520.263,574.209 520.596,573.209 521.5,572.5C 522.434,573.568 522.768,574.901 522.5,576.5C 522.5,576.833 522.5,577.167 522.5,577.5C 431.833,577.5 341.167,577.5 250.5,577.5C 250.5,577.167 250.5,576.833 250.5,576.5C 249.258,574.389 249.258,572.389 250.5,570.5 Z"/></g>
<g><path style="opacity:0.508" fill="#828282" d="M 694.5,575.5 C 694.5,576.167 694.5,576.833 694.5,577.5C 637.167,577.5 579.833,577.5 522.5,577.5C 522.5,577.167 522.5,576.833 522.5,576.5C 540.167,576.5 557.833,576.5 575.5,576.5C 575.077,574.219 575.744,572.552 577.5,571.5C 577.5,572.833 577.5,574.167 577.5,575.5C 579.924,575.808 582.257,575.474 584.5,574.5C 588.802,561.912 593.469,549.579 598.5,537.5C 599.043,537.56 599.376,537.893 599.5,538.5C 594.833,550.833 590.167,563.167 585.5,575.5C 594.833,576.833 604.167,576.833 613.5,575.5C 626.463,538.918 639.963,502.585 654,466.5C 668.051,502.606 681.551,538.94 694.5,575.5 Z M 653.5,469.5 C 640.844,504.465 628.177,539.465 615.5,574.5C 641.158,575.5 666.825,575.833 692.5,575.5C 680.02,539.893 667.02,504.559 653.5,469.5 Z"/></g>
<g><path style="opacity:0.998" fill="#666666" d="M 194.5,573.5 C 194.833,573.5 195.167,573.5 195.5,573.5C 195.804,574.15 196.137,574.817 196.5,575.5C 214.488,576.5 232.488,576.833 250.5,576.5C 250.5,576.833 250.5,577.167 250.5,577.5C 231.821,577.167 213.155,577.5 194.5,578.5C 194.863,579.183 195.196,579.85 195.5,580.5C 194.833,580.5 194.5,580.833 194.5,581.5C 193.661,580.359 192.994,579.026 192.5,577.5C 193.63,576.378 194.297,575.044 194.5,573.5 Z"/></g>
<g><path style="opacity:0.998" fill="#636363" d="M 694.5,575.5 C 712.264,576.824 729.931,576.824 747.5,575.5C 748.338,575.842 748.672,576.508 748.5,577.5C 730.5,577.5 712.5,577.5 694.5,577.5C 694.5,576.833 694.5,576.167 694.5,575.5 Z"/></g>
<g><path style="opacity:1" fill="#2e2e2e" d="M 250.5,577.5 C 341.167,577.5 431.833,577.5 522.5,577.5C 579.833,577.5 637.167,577.5 694.5,577.5C 712.5,577.5 730.5,577.5 748.5,577.5C 750.554,577.365 752.221,578.032 753.5,579.5C 567.667,580.5 381.667,580.833 195.5,580.5C 195.196,579.85 194.863,579.183 194.5,578.5C 213.155,577.5 231.821,577.167 250.5,577.5 Z"/></g>
<g><path style="opacity:0.5" fill="#c6c6c6" d="M 753.5,579.5 C 753.833,579.5 754.167,579.5 754.5,579.5C 755.774,580.189 755.774,581.023 754.5,582C 567.666,582.833 381,582.666 194.5,581.5C 194.5,580.833 194.833,580.5 195.5,580.5C 381.667,580.833 567.667,580.5 753.5,579.5 Z"/></g>
<g><path style="opacity:0.965" fill="#525f4b" d="M 557.5,601.5 C 555.849,603.402 555.516,605.402 556.5,607.5C 556.552,609.903 556.219,612.236 555.5,614.5C 554.414,614.62 553.747,615.287 553.5,616.5C 552.897,619.35 552.23,622.184 551.5,625C 551.57,625.765 551.903,626.265 552.5,626.5C 552.552,628.903 552.219,631.236 551.5,633.5C 549.448,634.053 549.115,635.053 550.5,636.5C 550.5,637.167 550.5,637.833 550.5,638.5C 548.699,639.719 547.699,641.552 547.5,644C 547.57,644.765 547.903,645.265 548.5,645.5C 547.992,650.543 547.158,655.543 546,660.5C 545.623,661.942 544.79,662.942 543.5,663.5C 542.432,662.566 541.099,662.232 539.5,662.5C 539.782,659.653 539.782,656.987 539.5,654.5C 535.697,658.324 531.697,661.657 527.5,664.5C 525.833,664.5 524.167,664.5 522.5,664.5C 518.456,661.457 515.123,657.791 512.5,653.5C 512.5,650.167 512.5,646.833 512.5,643.5C 513.586,643.38 514.253,642.713 514.5,641.5C 514.457,640.584 514.124,639.917 513.5,639.5C 513.5,638.833 513.5,638.167 513.5,637.5C 516.545,632.44 519.879,627.44 523.5,622.5C 523.5,621.833 523.833,621.5 524.5,621.5C 524.435,621.938 524.601,622.272 525,622.5C 527.118,621.717 528.618,620.384 529.5,618.5C 530.167,618.5 530.833,618.5 531.5,618.5C 537.538,618.525 542.204,621.192 545.5,626.5C 547.066,623.428 547.399,620.428 546.5,617.5C 546.5,616.5 546.5,615.5 546.5,614.5C 547.931,614.119 548.764,613.119 549,611.5C 549.436,609.153 549.936,606.819 550.5,604.5C 550.457,603.584 550.124,602.917 549.5,602.5C 550.492,600.974 551.992,600.307 554,600.5C 555.385,600.514 556.551,600.848 557.5,601.5 Z M 533.5,625.5 C 534.5,625.5 535.5,625.5 536.5,625.5C 538.593,626.058 540.093,627.391 541,629.5C 541.497,632.146 541.664,634.813 541.5,637.5C 541.5,638.5 541.5,639.5 541.5,640.5C 540.463,641.93 539.796,643.597 539.5,645.5C 539.5,645.833 539.5,646.167 539.5,646.5C 537.408,650.428 534.408,653.594 530.5,656C 526.718,657.221 523.718,656.387 521.5,653.5C 521.5,652.833 521.5,652.167 521.5,651.5C 521.137,643.62 522.97,636.286 527,629.5C 529.013,627.752 531.18,626.418 533.5,625.5 Z"/></g>
<g><path style="opacity:0.333" fill="#b3b8af" d="M 583.5,607.5 C 582.075,603.184 579.575,602.518 576,605.5C 575.79,607.058 575.29,608.391 574.5,609.5C 573.411,605.51 575.078,602.843 579.5,601.5C 582.956,602.46 584.289,604.46 583.5,607.5 Z"/></g>
<g><path style="opacity:0.5" fill="#a9afa6" d="M 411.5,603.5 C 412.492,603.328 413.158,603.662 413.5,604.5C 412.377,605.757 411.711,605.424 411.5,603.5 Z"/></g>
<g><path style="opacity:0.966" fill="#54614c" d="M 583.5,607.5 C 581.413,613.108 578.413,613.775 574.5,609.5C 575.29,608.391 575.79,607.058 576,605.5C 579.575,602.518 582.075,603.184 583.5,607.5 Z"/></g>
<g><path style="opacity:0.972" fill="#505c48" d="M 402.5,603.5 C 405.5,603.5 408.5,603.5 411.5,603.5C 411.711,605.424 412.377,605.757 413.5,604.5C 414.167,604.5 414.833,604.5 415.5,604.5C 416.511,606.199 417.845,607.699 419.5,609C 419.265,609.873 418.931,610.707 418.5,611.5C 415.412,611.441 412.412,611.441 409.5,611.5C 407.5,611.5 405.5,611.5 403.5,611.5C 396.195,611.702 393.362,615.702 395,623.5C 395.583,625.002 396.416,626.335 397.5,627.5C 401.421,630.043 405.254,632.71 409,635.5C 409.399,635.272 409.565,634.938 409.5,634.5C 410.833,635.167 411.833,636.167 412.5,637.5C 412.062,637.435 411.728,637.601 411.5,638C 412.579,639.859 413.912,641.359 415.5,642.5C 415.5,643.167 415.5,643.833 415.5,644.5C 414.167,645.833 414.167,647.167 415.5,648.5C 415.5,649.167 415.5,649.833 415.5,650.5C 412.409,656.41 407.575,660.41 401,662.5C 399.97,662.836 399.47,663.503 399.5,664.5C 396.167,664.5 392.833,664.5 389.5,664.5C 387.403,662.518 384.736,661.518 381.5,661.5C 381.201,659.396 381.534,657.396 382.5,655.5C 384.902,657.009 387.235,657.342 389.5,656.5C 392.167,656.5 394.833,656.5 397.5,656.5C 405.167,656.648 408.667,652.648 408,644.5C 407.208,642.413 406.041,640.579 404.5,639C 399.107,636.274 394.274,632.774 390,628.5C 385.905,617.025 389.572,609.358 401,605.5C 402.03,605.164 402.53,604.497 402.5,603.5 Z"/></g>
<g><path style="opacity:0.667" fill="#949b8f" d="M 549.5,602.5 C 550.124,602.917 550.457,603.584 550.5,604.5C 549.936,606.819 549.436,609.153 549,611.5C 548.764,613.119 547.931,614.119 546.5,614.5C 547.262,610.329 548.262,606.329 549.5,602.5 Z"/></g>
<g><path style="opacity:0.333" fill="#a7ada3" d="M 557.5,601.5 C 558.043,601.56 558.376,601.893 558.5,602.5C 557.972,604.336 557.306,606.003 556.5,607.5C 555.516,605.402 555.849,603.402 557.5,601.5 Z"/></g>
<g><path style="opacity:0.916" fill="#54604c" d="M 442.5,608.5 C 444.635,608.147 445.968,608.98 446.5,611C 445.956,613.4 445.289,615.733 444.5,618C 447.833,618.333 451.167,618.667 454.5,619C 455.683,621.155 455.35,623.155 453.5,625C 450.183,625.498 446.85,625.665 443.5,625.5C 442.883,625.389 442.383,625.056 442,624.5C 441.166,628.002 440.333,631.502 439.5,635C 439.57,635.765 439.903,636.265 440.5,636.5C 440.218,640.574 439.552,644.574 438.5,648.5C 436.448,649.053 436.115,650.053 437.5,651.5C 437.5,652.5 437.5,653.5 437.5,654.5C 436.733,656.939 437.9,658.272 441,658.5C 442.376,658.316 443.209,657.649 443.5,656.5C 447.225,656.78 448.392,658.78 447,662.5C 446.617,663.056 446.117,663.389 445.5,663.5C 441.904,663.742 438.237,663.242 434.5,662C 432.667,661.5 431.5,660.333 431,658.5C 431.131,648.336 432.631,638.336 435.5,628.5C 435.457,627.584 435.124,626.917 434.5,626.5C 432.782,625.776 430.948,625.109 429,624.5C 428.227,622.648 428.727,621.314 430.5,620.5C 430.435,620.938 430.601,621.272 431,621.5C 432.816,620.671 434.649,619.837 436.5,619C 438.891,615.717 440.891,612.217 442.5,608.5 Z"/></g>
<g><path style="opacity:0.22" fill="#969e92" d="M 415.5,604.5 C 422.814,606.468 423.48,609.801 417.5,614.5C 414.718,613.484 412.051,612.484 409.5,611.5C 412.412,611.441 415.412,611.441 418.5,611.5C 418.931,610.707 419.265,609.873 419.5,609C 417.845,607.699 416.511,606.199 415.5,604.5 Z"/></g>
<g><path style="opacity:0.443" fill="#9ea499" d="M 442.5,608.5 C 440.891,612.217 438.891,615.717 436.5,619C 434.649,619.837 432.816,620.671 431,621.5C 430.601,621.272 430.435,620.938 430.5,620.5C 431.842,619.207 433.509,618.374 435.5,618C 437.127,615.246 438.627,612.412 440,609.5C 440.671,608.748 441.504,608.414 442.5,608.5 Z"/></g>
<g><path style="opacity:0.519" fill="#b4b9b1" d="M 579.5,623.5 C 578.209,622.458 578.209,621.292 579.5,620C 576.779,619.398 574.113,619.565 571.5,620.5C 571.414,619.504 571.748,618.671 572.5,618C 574.833,617.333 577.167,617.333 579.5,618C 580.807,619.943 580.807,621.777 579.5,623.5 Z"/></g>
<g><path style="opacity:0.964" fill="#515d49" d="M 475.5,619.5 C 474.167,620.167 474.167,620.833 475.5,621.5C 475.552,623.903 475.219,626.236 474.5,628.5C 473.414,628.62 472.747,629.287 472.5,630.5C 471.897,633.35 471.23,636.184 470.5,639C 470.57,639.765 470.903,640.265 471.5,640.5C 471.5,641.167 471.5,641.833 471.5,642.5C 469.955,643.23 469.122,644.563 469,646.5C 467.182,657.688 471.349,660.855 481.5,656C 485.458,652.579 488.292,648.412 490,643.5C 491.564,637.181 493.064,630.848 494.5,624.5C 494.457,623.584 494.124,622.917 493.5,622.5C 493.33,621.178 493.663,620.011 494.5,619C 497.039,618.204 499.372,618.371 501.5,619.5C 500.167,620.5 500.167,621.5 501.5,622.5C 501.5,623.167 501.5,623.833 501.5,624.5C 499.955,625.23 499.122,626.563 499,628.5C 498.294,632.364 497.461,636.197 496.5,640C 496.57,640.765 496.903,641.265 497.5,641.5C 497.552,643.903 497.219,646.236 496.5,648.5C 495.414,648.62 494.747,649.287 494.5,650.5C 493.444,654.444 492.777,658.444 492.5,662.5C 490.833,662.5 489.167,662.5 487.5,662.5C 487.737,661.209 487.404,660.209 486.5,659.5C 486.5,658.833 486.5,658.167 486.5,657.5C 488.465,657.052 488.798,656.052 487.5,654.5C 485.016,656.483 482.683,658.65 480.5,661C 478.02,661.96 475.52,662.793 473,663.5C 470.564,662.645 468.064,661.979 465.5,661.5C 463.434,658.033 462.1,654.366 461.5,650.5C 461.5,649.833 461.5,649.167 461.5,648.5C 462.649,648.209 463.316,647.376 463.5,646C 464.503,643.654 464.503,641.487 463.5,639.5C 463.5,638.5 463.5,637.5 463.5,636.5C 464.497,636.53 465.164,636.03 465.5,635C 466.608,633.323 466.608,631.823 465.5,630.5C 465.5,629.5 465.5,628.5 465.5,627.5C 466.931,627.119 467.764,626.119 468,624.5C 468.765,622.934 468.598,621.601 467.5,620.5C 468.492,618.974 469.992,618.307 472,618.5C 473.385,618.514 474.551,618.848 475.5,619.5 Z"/></g>
<g><path style="opacity:0.977" fill="#4f5c47" d="M 654.5,617.5 C 657.5,617.5 660.5,617.5 663.5,617.5C 665.119,619.461 667.286,620.794 670,621.5C 669.669,623.019 669.836,624.352 670.5,625.5C 670.5,626.167 670.167,626.5 669.5,626.5C 663.962,623.229 658.296,622.896 652.5,625.5C 651.713,626.242 651.047,627.075 650.5,628C 650.728,628.399 651.062,628.565 651.5,628.5C 651.5,629.5 651.5,630.5 651.5,631.5C 650.957,631.56 650.624,631.893 650.5,632.5C 653.258,635.718 656.591,638.218 660.5,640C 666.648,644.552 668.148,650.385 665,657.5C 661.777,660.001 658.61,662.334 655.5,664.5C 652.833,664.5 650.167,664.5 647.5,664.5C 645.349,662.856 642.849,661.522 640,660.5C 639.333,658.833 639.333,657.167 640,655.5C 647.319,659.976 654.152,659.476 660.5,654C 660.272,653.601 659.938,653.435 659.5,653.5C 659.5,652.167 659.5,650.833 659.5,649.5C 660.525,649.103 660.692,648.437 660,647.5C 657.108,644.943 653.941,642.776 650.5,641C 644.527,636.714 643.027,631.214 646,624.5C 648.709,621.768 651.542,619.435 654.5,617.5 Z"/></g>
<g><path style="opacity:0.22" fill="#b1b6ad" d="M 475.5,619.5 C 476.833,620.167 476.833,620.833 475.5,621.5C 474.167,620.833 474.167,620.167 475.5,619.5 Z"/></g>
<g><path style="opacity:0.443" fill="#aab0a6" d="M 529.5,618.5 C 528.618,620.384 527.118,621.717 525,622.5C 524.601,622.272 524.435,621.938 524.5,621.5C 525.659,619.75 527.326,618.75 529.5,618.5 Z"/></g>
<g><path style="opacity:0.961" fill="#525f4a" d="M 579.5,623.5 C 579.5,624.167 579.5,624.833 579.5,625.5C 578.414,625.62 577.747,626.287 577.5,627.5C 576.897,630.35 576.23,633.184 575.5,636C 575.57,636.765 575.903,637.265 576.5,637.5C 576.552,639.903 576.219,642.236 575.5,644.5C 573.955,645.23 573.122,646.563 573,648.5C 572.294,652.364 571.461,656.197 570.5,660C 570.57,660.765 570.903,661.265 571.5,661.5C 570.508,663.026 569.008,663.693 567,663.5C 565.615,663.486 564.449,663.152 563.5,662.5C 565.151,660.598 565.484,658.598 564.5,656.5C 564.5,655.5 564.5,654.5 564.5,653.5C 565.931,653.119 566.764,652.119 567,650.5C 567.765,648.934 567.598,647.601 566.5,646.5C 566.5,645.5 566.5,644.5 566.5,643.5C 567.931,643.119 568.764,642.119 569,640.5C 569.373,638.302 569.873,636.135 570.5,634C 570.43,633.235 570.097,632.735 569.5,632.5C 569.5,631.5 569.5,630.5 569.5,629.5C 570.931,629.119 571.764,628.119 572,626.5C 572.765,624.934 572.598,623.601 571.5,622.5C 571.5,621.833 571.5,621.167 571.5,620.5C 574.113,619.565 576.779,619.398 579.5,620C 578.209,621.292 578.209,622.458 579.5,623.5 Z"/></g>
<g><path style="opacity:0.979" fill="#505d48" d="M 616.5,618.5 C 617.167,618.5 617.833,618.5 618.5,618.5C 622.883,621.881 626.55,625.881 629.5,630.5C 629.5,631.167 629.5,631.833 629.5,632.5C 628.167,634.833 628.167,637.167 629.5,639.5C 629.5,640.5 629.5,641.5 629.5,642.5C 627.258,647.63 624.425,652.63 621,657.5C 617.777,660.001 614.61,662.334 611.5,664.5C 608.833,664.5 606.167,664.5 603.5,664.5C 600.023,662.468 596.857,659.801 594,656.5C 592.978,650.731 592.145,645.064 591.5,639.5C 591.5,638.833 591.5,638.167 591.5,637.5C 592.497,637.53 593.164,637.03 593.5,636C 594.335,634.869 594.335,634.036 593.5,633.5C 593.5,633.167 593.5,632.833 593.5,632.5C 595.483,631.098 597.149,629.264 598.5,627C 598.272,626.601 597.938,626.435 597.5,626.5C 598.5,624.833 599.833,623.5 601.5,622.5C 601.435,622.938 601.601,623.272 602,623.5C 602.903,622.299 604.069,621.465 605.5,621C 609.28,620.082 612.946,619.249 616.5,618.5 Z M 611.5,625.5 C 612.5,625.5 613.5,625.5 614.5,625.5C 617.06,626.22 618.893,627.887 620,630.5C 620.498,633.817 620.665,637.15 620.5,640.5C 620.5,641.5 620.5,642.5 620.5,643.5C 618.622,652.884 612.955,657.051 603.5,656C 601.531,654.5 600.198,652.667 599.5,650.5C 599.5,647.5 599.5,644.5 599.5,641.5C 600.678,637.824 602.178,634.157 604,630.5C 606.17,628.177 608.67,626.51 611.5,625.5 Z"/></g>
<g><path style="opacity:0.443" fill="#9ca397" d="M 654.5,617.5 C 651.542,619.435 648.709,621.768 646,624.5C 643.027,631.214 644.527,636.714 650.5,641C 653.941,642.776 657.108,644.943 660,647.5C 660.692,648.437 660.525,649.103 659.5,649.5C 654.59,645.771 649.756,641.771 645,637.5C 640.83,627.501 643.997,620.835 654.5,617.5 Z"/></g>
<g><path style="opacity:0.553" fill="#a9afa5" d="M 663.5,617.5 C 666.44,618.202 669.273,619.202 672,620.5C 672.203,622.391 671.703,624.057 670.5,625.5C 669.836,624.352 669.669,623.019 670,621.5C 667.286,620.794 665.119,619.461 663.5,617.5 Z"/></g>
<g><path style="opacity:0.333" fill="#a8aea5" d="M 501.5,619.5 C 502.833,620.5 502.833,621.5 501.5,622.5C 500.167,621.5 500.167,620.5 501.5,619.5 Z"/></g>
<g><path style="opacity:0.443" fill="#9ba397" d="M 616.5,618.5 C 612.946,619.249 609.28,620.082 605.5,621C 604.069,621.465 602.903,622.299 602,623.5C 601.601,623.272 601.435,622.938 601.5,622.5C 605.832,618.272 610.832,616.939 616.5,618.5 Z"/></g>
<g><path style="opacity:0.667" fill="#9da599" d="M 618.5,618.5 C 624.235,620.57 627.902,624.57 629.5,630.5C 626.55,625.881 622.883,621.881 618.5,618.5 Z"/></g>
<g><path style="opacity:0.5" fill="#98a094" d="M 467.5,620.5 C 468.598,621.601 468.765,622.934 468,624.5C 467.764,626.119 466.931,627.119 465.5,627.5C 465.927,624.99 466.593,622.657 467.5,620.5 Z"/></g>
<g><path style="opacity:0.667" fill="#a1a89d" d="M 546.5,617.5 C 547.399,620.428 547.066,623.428 545.5,626.5C 542.204,621.192 537.538,618.525 531.5,618.5C 536.441,617.101 540.774,618.435 544.5,622.5C 545.17,620.709 545.837,619.042 546.5,617.5 Z"/></g>
<g><path style="opacity:0.5" fill="#a0a69b" d="M 555.5,614.5 C 554.992,618.736 553.992,622.736 552.5,626.5C 551.903,626.265 551.57,625.765 551.5,625C 552.23,622.184 552.897,619.35 553.5,616.5C 553.747,615.287 554.414,614.62 555.5,614.5 Z"/></g>
<g><path style="opacity:0.5" fill="#979e92" d="M 571.5,622.5 C 572.598,623.601 572.765,624.934 572,626.5C 571.764,628.119 570.931,629.119 569.5,629.5C 569.927,626.99 570.593,624.657 571.5,622.5 Z"/></g>
<g><path style="opacity:0.333" fill="#a9afa6" d="M 541.5,637.5 C 541.664,634.813 541.497,632.146 541,629.5C 540.093,627.391 538.593,626.058 536.5,625.5C 539.563,624.631 541.73,625.965 543,629.5C 543.167,630.833 543.333,632.167 543.5,633.5C 543.415,635.333 542.748,636.666 541.5,637.5 Z"/></g>
<g><path style="opacity:0.22" fill="#afb4ac" d="M 620.5,640.5 C 620.665,637.15 620.498,633.817 620,630.5C 618.893,627.887 617.06,626.22 614.5,625.5C 615.251,624.427 616.251,624.26 617.5,625C 622.612,629.642 623.612,634.809 620.5,640.5 Z"/></g>
<g><path style="opacity:0.333" fill="#9ea59a" d="M 611.5,625.5 C 608.67,626.51 606.17,628.177 604,630.5C 602.178,634.157 600.678,637.824 599.5,641.5C 598.828,633.548 602.328,627.882 610,624.5C 610.765,624.57 611.265,624.903 611.5,625.5 Z"/></g>
<g><path style="opacity:0.22" fill="#929a8d" d="M 669.5,626.5 C 669.265,627.097 668.765,627.43 668,627.5C 663.645,625.683 659.145,625.183 654.5,626C 653.309,626.698 652.309,627.531 651.5,628.5C 651.062,628.565 650.728,628.399 650.5,628C 651.047,627.075 651.713,626.242 652.5,625.5C 658.296,622.896 663.962,623.229 669.5,626.5 Z"/></g>
<g><path style="opacity:0.22" fill="#9ca397" d="M 403.5,611.5 C 397.165,613.501 394.998,617.835 397,624.5C 401.041,628.047 405.208,631.38 409.5,634.5C 409.565,634.938 409.399,635.272 409,635.5C 405.254,632.71 401.421,630.043 397.5,627.5C 396.416,626.335 395.583,625.002 395,623.5C 393.362,615.702 396.195,611.702 403.5,611.5 Z"/></g>
<g><path style="opacity:0.667" fill="#90988c" d="M 434.5,626.5 C 435.124,626.917 435.457,627.584 435.5,628.5C 432.631,638.336 431.131,648.336 431,658.5C 431.5,660.333 432.667,661.5 434.5,662C 438.237,663.242 441.904,663.742 445.5,663.5C 440.745,665.057 436.079,664.557 431.5,662C 428.82,658.577 427.987,654.744 429,650.5C 430.409,642.27 432.242,634.27 434.5,626.5 Z"/></g>
<g><path style="opacity:0.5" fill="#a2a89e" d="M 443.5,625.5 C 442.866,629.373 441.866,633.039 440.5,636.5C 439.903,636.265 439.57,635.765 439.5,635C 440.333,631.502 441.166,628.002 442,624.5C 442.383,625.056 442.883,625.389 443.5,625.5 Z"/></g>
<g><path style="opacity:0.333" fill="#9fa69b" d="M 501.5,624.5 C 500.658,630.398 499.324,636.065 497.5,641.5C 496.903,641.265 496.57,640.765 496.5,640C 497.461,636.197 498.294,632.364 499,628.5C 499.122,626.563 499.955,625.23 501.5,624.5 Z"/></g>
<g><path style="opacity:0.333" fill="#9ea69b" d="M 597.5,626.5 C 597.938,626.435 598.272,626.601 598.5,627C 597.149,629.264 595.483,631.098 593.5,632.5C 594.34,630.147 595.674,628.147 597.5,626.5 Z"/></g>
<g><path style="opacity:0.443" fill="#91998c" d="M 523.5,622.5 C 519.879,627.44 516.545,632.44 513.5,637.5C 515.139,631.181 518.472,626.181 523.5,622.5 Z"/></g>
<g><path style="opacity:0.22" fill="#a1a79d" d="M 533.5,625.5 C 531.18,626.418 529.013,627.752 527,629.5C 522.97,636.286 521.137,643.62 521.5,651.5C 519.136,642.666 521.136,634.499 527.5,627C 529.01,626.15 530.51,625.317 532,624.5C 532.765,624.57 533.265,624.903 533.5,625.5 Z"/></g>
<g><path style="opacity:0.333" fill="#abb1a7" d="M 551.5,633.5 C 551.737,634.791 551.404,635.791 550.5,636.5C 549.115,635.053 549.448,634.053 551.5,633.5 Z"/></g>
<g><path style="opacity:0.444" fill="#c6cac4" d="M 629.5,632.5 C 630.833,634.833 630.833,637.167 629.5,639.5C 628.167,637.167 628.167,634.833 629.5,632.5 Z"/></g>
<g><path style="opacity:0.22" fill="#969e91" d="M 402.5,603.5 C 402.53,604.497 402.03,605.164 401,605.5C 389.572,609.358 385.905,617.025 390,628.5C 394.274,632.774 399.107,636.274 404.5,639C 406.041,640.579 407.208,642.413 408,644.5C 408.667,652.648 405.167,656.648 397.5,656.5C 404.808,655.239 407.641,650.906 406,643.5C 400.413,638.854 394.746,634.188 389,629.5C 383.68,615.807 388.18,607.14 402.5,603.5 Z"/></g>
<g><path style="opacity:0.333" fill="#b5bbb2" d="M 465.5,630.5 C 466.608,631.823 466.608,633.323 465.5,635C 465.164,636.03 464.497,636.53 463.5,636.5C 463.875,634.302 464.542,632.302 465.5,630.5 Z"/></g>
<g><path style="opacity:0.5" fill="#a1a79c" d="M 579.5,625.5 C 578.992,629.736 577.992,633.736 576.5,637.5C 575.903,637.265 575.57,636.765 575.5,636C 576.23,633.184 576.897,630.35 577.5,627.5C 577.747,626.287 578.414,625.62 579.5,625.5 Z"/></g>
<g><path style="opacity:0.553" fill="#bbbfb8" d="M 593.5,633.5 C 594.335,634.036 594.335,634.869 593.5,636C 593.164,637.03 592.497,637.53 591.5,637.5C 591.66,635.847 592.326,634.514 593.5,633.5 Z"/></g>
<g><path style="opacity:0.667" fill="#b0b5ac" d="M 569.5,632.5 C 570.097,632.735 570.43,633.235 570.5,634C 569.873,636.135 569.373,638.302 569,640.5C 568.764,642.119 567.931,643.119 566.5,643.5C 567.134,639.627 568.134,635.961 569.5,632.5 Z"/></g>
<g><path style="opacity:0.22" fill="#90978b" d="M 412.5,637.5 C 414.25,638.659 415.25,640.326 415.5,642.5C 413.912,641.359 412.579,639.859 411.5,638C 411.728,637.601 412.062,637.435 412.5,637.5 Z"/></g>
<g><path style="opacity:0.333" fill="#a5aca2" d="M 474.5,628.5 C 473.992,632.736 472.992,636.736 471.5,640.5C 470.903,640.265 470.57,639.765 470.5,639C 471.23,636.184 471.897,633.35 472.5,630.5C 472.747,629.287 473.414,628.62 474.5,628.5 Z"/></g>
<g><path style="opacity:0.667" fill="#8b9385" d="M 463.5,639.5 C 464.503,641.487 464.503,643.654 463.5,646C 463.316,647.376 462.649,648.209 461.5,648.5C 461.676,645.273 462.343,642.273 463.5,639.5 Z"/></g>
<g><path style="opacity:0.5" fill="#9fa59b" d="M 513.5,639.5 C 514.124,639.917 514.457,640.584 514.5,641.5C 514.253,642.713 513.586,643.38 512.5,643.5C 512.232,641.901 512.566,640.568 513.5,639.5 Z"/></g>
<g><path style="opacity:0.333" fill="#a0a79c" d="M 550.5,638.5 C 550.279,641.067 549.612,643.401 548.5,645.5C 547.903,645.265 547.57,644.765 547.5,644C 547.699,641.552 548.699,639.719 550.5,638.5 Z"/></g>
<g><path style="opacity:0.276" fill="#d2d5d0" d="M 415.5,644.5 C 416.833,645.833 416.833,647.167 415.5,648.5C 414.167,647.167 414.167,645.833 415.5,644.5 Z"/></g>
<g><path style="opacity:0.5" fill="#a8aea5" d="M 541.5,640.5 C 542.515,641.46 542.515,642.627 541.5,644C 541.164,645.03 540.497,645.53 539.5,645.5C 539.796,643.597 540.463,641.93 541.5,640.5 Z"/></g>
<g><path style="opacity:0.443" fill="#a2a89e" d="M 493.5,622.5 C 494.124,622.917 494.457,623.584 494.5,624.5C 493.064,630.848 491.564,637.181 490,643.5C 488.292,648.412 485.458,652.579 481.5,656C 471.349,660.855 467.182,657.688 469,646.5C 469.122,644.563 469.955,643.23 471.5,642.5C 470.537,646.796 470.371,651.129 471,655.5C 476.894,657.563 481.561,655.897 485,650.5C 486,648.5 487,646.5 488,644.5C 489.662,636.992 491.495,629.659 493.5,622.5 Z"/></g>
<g><path style="opacity:0.333" fill="#b0b6ae" d="M 438.5,648.5 C 438.737,649.791 438.404,650.791 437.5,651.5C 436.115,650.053 436.448,649.053 438.5,648.5 Z"/></g>
<g><path style="opacity:0.667" fill="#939a8d" d="M 566.5,646.5 C 567.598,647.601 567.765,648.934 567,650.5C 566.764,652.119 565.931,653.119 564.5,653.5C 564.927,650.99 565.593,648.657 566.5,646.5 Z"/></g>
<g><path style="opacity:0.5" fill="#9ea599" d="M 575.5,644.5 C 574.658,650.398 573.324,656.065 571.5,661.5C 570.903,661.265 570.57,660.765 570.5,660C 571.461,656.197 572.294,652.364 573,648.5C 573.122,646.563 573.955,645.23 575.5,644.5 Z"/></g>
<g><path style="opacity:0.333" fill="#929a8d" d="M 651.5,631.5 C 656.744,635.563 661.911,639.896 667,644.5C 670.174,655.149 666.341,661.815 655.5,664.5C 658.61,662.334 661.777,660.001 665,657.5C 668.148,650.385 666.648,644.552 660.5,640C 656.591,638.218 653.258,635.718 650.5,632.5C 650.624,631.893 650.957,631.56 651.5,631.5 Z"/></g>
<g><path style="opacity:0.443" fill="#9aa196" d="M 629.5,642.5 C 627.45,653.204 621.45,660.537 611.5,664.5C 614.61,662.334 617.777,660.001 621,657.5C 624.425,652.63 627.258,647.63 629.5,642.5 Z"/></g>
<g><path style="opacity:0.5" fill="#9ea499" d="M 496.5,648.5 C 495.912,653.808 494.579,658.808 492.5,663.5C 492.5,663.167 492.5,662.833 492.5,662.5C 492.777,658.444 493.444,654.444 494.5,650.5C 494.747,649.287 495.414,648.62 496.5,648.5 Z"/></g>
<g><path style="opacity:0.667" fill="#92998d" d="M 539.5,646.5 C 538.476,651.736 535.142,655.57 529.5,658C 525.619,659.059 522.619,657.892 520.5,654.5C 520.624,653.893 520.957,653.56 521.5,653.5C 523.718,656.387 526.718,657.221 530.5,656C 534.408,653.594 537.408,650.428 539.5,646.5 Z"/></g>
<g><path style="opacity:0.333" fill="#a1a89d" d="M 620.5,643.5 C 620.632,650.323 617.299,655.156 610.5,658C 604.672,659.252 600.672,657.085 598.5,651.5C 598.624,650.893 598.957,650.56 599.5,650.5C 600.198,652.667 601.531,654.5 603.5,656C 612.955,657.051 618.622,652.884 620.5,643.5 Z"/></g>
<g><path style="opacity:0.667" fill="#afb5ac" d="M 437.5,654.5 C 439.114,656.075 441.114,656.741 443.5,656.5C 443.209,657.649 442.376,658.316 441,658.5C 437.9,658.272 436.733,656.939 437.5,654.5 Z"/></g>
<g><path style="opacity:0.22" fill="#92998d" d="M 415.5,650.5 C 413.014,658.314 407.68,662.981 399.5,664.5C 399.47,663.503 399.97,662.836 401,662.5C 407.575,660.41 412.409,656.41 415.5,650.5 Z"/></g>
<g><path style="opacity:0.333" fill="#b6bbb3" d="M 461.5,650.5 C 462.1,654.366 463.434,658.033 465.5,661.5C 465.167,661.5 464.833,661.5 464.5,661.5C 461.219,658.341 460.219,654.674 461.5,650.5 Z"/></g>
<g><path style="opacity:0.22" fill="#babfb8" d="M 564.5,656.5 C 565.484,658.598 565.151,660.598 563.5,662.5C 562.957,662.44 562.624,662.107 562.5,661.5C 563.028,659.664 563.694,657.997 564.5,656.5 Z"/></g>
<g><path style="opacity:0.333" fill="#9aa296" d="M 591.5,639.5 C 592.145,645.064 592.978,650.731 594,656.5C 596.857,659.801 600.023,662.468 603.5,664.5C 591.842,659.865 587.842,651.532 591.5,639.5 Z"/></g>
<g><path style="opacity:0.22" fill="#afb5ab" d="M 659.5,653.5 C 659.938,653.435 660.272,653.601 660.5,654C 654.152,659.476 647.319,659.976 640,655.5C 639.333,657.167 639.333,658.833 640,660.5C 642.849,661.522 645.349,662.856 647.5,664.5C 644.044,664.404 640.877,663.404 638,661.5C 637.231,658.901 637.398,656.401 638.5,654C 642.29,655.306 646.29,656.139 650.5,656.5C 654.01,656.86 657.01,655.86 659.5,653.5 Z"/></g>
<g><path style="opacity:0.443" fill="#989f93" d="M 389.5,656.5 C 387.235,657.342 384.902,657.009 382.5,655.5C 381.534,657.396 381.201,659.396 381.5,661.5C 384.736,661.518 387.403,662.518 389.5,664.5C 386.312,664.382 383.312,663.549 380.5,662C 379.892,660.769 379.559,659.436 379.5,658C 379.309,656.027 379.976,654.527 381.5,653.5C 384.282,654.516 386.949,655.516 389.5,656.5 Z"/></g>
<g><path style="opacity:0.333" fill="#939b8f" d="M 512.5,653.5 C 515.123,657.791 518.456,661.457 522.5,664.5C 517.067,662.734 513.734,659.067 512.5,653.5 Z"/></g>
<g><path style="opacity:0.443" fill="#8d9588" d="M 539.5,662.5 C 539.5,662.833 539.5,663.167 539.5,663.5C 537.933,662.319 537.099,660.653 537,658.5C 534.536,661.647 531.37,663.647 527.5,664.5C 531.697,661.657 535.697,658.324 539.5,654.5C 539.782,656.987 539.782,659.653 539.5,662.5 Z"/></g>
<g><path style="opacity:0.537" fill="#d1d4ce" d="M 486.5,659.5 C 487.404,660.209 487.737,661.209 487.5,662.5C 489.167,662.5 490.833,662.5 492.5,662.5C 492.5,662.833 492.5,663.167 492.5,663.5C 489.351,665.229 487.018,664.395 485.5,661C 485.57,660.235 485.903,659.735 486.5,659.5 Z"/></g>
<g><path style="opacity:0.518" fill="#d7d9d5" d="M 539.5,662.5 C 541.099,662.232 542.432,662.566 543.5,663.5C 542.167,664.833 540.833,664.833 539.5,663.5C 539.5,663.167 539.5,662.833 539.5,662.5 Z"/></g>
<g><path style="opacity:0.333" fill="#747e6d" d="M 486.5,657.5 C 481.843,663.326 475.843,665.493 468.5,664C 466.934,663.392 465.6,662.558 464.5,661.5C 464.833,661.5 465.167,661.5 465.5,661.5C 468.064,661.979 470.564,662.645 473,663.5C 475.52,662.793 478.02,661.96 480.5,661C 482.683,658.65 485.016,656.483 487.5,654.5C 488.798,656.052 488.465,657.052 486.5,657.5 Z"/></g>
<g><path style="opacity:0.5" fill="#c5c5c5" d="M 793.5,692.5 C 792.833,692.5 792.167,692.5 791.5,692.5C 610.833,691.833 430.167,691.167 249.5,690.5C 430,689.334 610.666,689.167 791.5,690C 792.381,690.708 793.047,691.542 793.5,692.5 Z"/></g>
<g><path style="opacity:1" fill="#2f2f2f" d="M 249.5,690.5 C 430.167,691.167 610.833,691.833 791.5,692.5C 791.833,693.167 792.167,693.833 792.5,694.5C 611.833,694.5 431.167,694.5 250.5,694.5C 250.158,693.662 249.492,693.328 248.5,693.5C 248.263,692.209 248.596,691.209 249.5,690.5 Z"/></g>
<g><path style="opacity:0.511" fill="#5d5d5d" d="M 250.5,694.5 C 431.167,694.5 611.833,694.5 792.5,694.5C 792.5,694.833 792.5,695.167 792.5,695.5C 774.659,695.17 756.992,695.503 739.5,696.5C 739.167,696.5 738.833,696.5 738.5,696.5C 683.163,696.167 627.829,696.5 572.5,697.5C 570.628,702.45 568.961,707.45 567.5,712.5C 566.833,712.5 566.167,712.5 565.5,712.5C 567.398,706.974 569.398,701.474 571.5,696C 561.483,695.168 551.483,695.334 541.5,696.5C 540.833,698.167 540.167,699.833 539.5,701.5C 539.043,702.298 538.376,702.631 537.5,702.5C 537.877,700.742 538.544,699.075 539.5,697.5C 532.532,696.503 525.532,696.17 518.5,696.5C 518.5,695.833 518.167,695.5 517.5,695.5C 500.83,695.333 484.163,695.5 467.5,696C 465.559,698.454 463.225,700.287 460.5,701.5C 460.167,701.5 459.833,701.5 459.5,701.5C 461.27,700.236 462.937,698.736 464.5,697C 414.168,696.5 363.834,696.333 313.5,696.5C 312.791,695.596 311.791,695.263 310.5,695.5C 290.833,695.5 271.167,695.5 251.5,695.5C 250.833,695.5 250.5,695.167 250.5,694.5 Z"/></g>
<g><path style="opacity:0.996" fill="#2f2f2f" d="M 251.5,695.5 C 271.167,695.5 290.833,695.5 310.5,695.5C 326.454,711.246 345.454,720.246 367.5,722.5C 368.5,722.5 369.5,722.5 370.5,722.5C 370.62,723.586 371.287,724.253 372.5,724.5C 373.416,724.457 374.083,724.124 374.5,723.5C 375.5,723.5 376.5,723.5 377.5,723.5C 380.938,724.823 384.771,725.49 389,725.5C 393.229,725.49 397.062,724.823 400.5,723.5C 401.5,723.5 402.5,723.5 403.5,723.5C 404.274,724.147 405.274,724.48 406.5,724.5C 408.03,724.36 409.03,723.693 409.5,722.5C 410.167,722.5 410.833,722.5 411.5,722.5C 412.623,723.757 413.289,723.424 413.5,721.5C 414.5,721.5 415.5,721.5 416.5,721.5C 416.735,722.097 417.235,722.43 418,722.5C 420.185,722.302 421.685,721.302 422.5,719.5C 423.167,719.5 423.833,719.5 424.5,719.5C 424.56,720.043 424.893,720.376 425.5,720.5C 427.795,719.568 430.129,718.735 432.5,718C 434.76,717.451 436.426,716.284 437.5,714.5C 437.833,714.5 438.167,714.5 438.5,714.5C 438.435,714.938 438.601,715.272 439,715.5C 446.829,711.68 453.996,707.014 460.5,701.5C 463.225,700.287 465.559,698.454 467.5,696C 484.163,695.5 500.83,695.333 517.5,695.5C 492.867,720.74 463.033,736.74 428,743.5C 426.624,743.684 425.791,744.351 425.5,745.5C 424.5,745.5 423.5,745.5 422.5,745.5C 421.903,744.861 421.07,744.528 420,744.5C 416.014,744.65 412.514,745.65 409.5,747.5C 408.5,747.5 407.5,747.5 406.5,747.5C 404.527,746.837 402.361,746.504 400,746.5C 397.39,746.533 395.223,747.2 393.5,748.5C 386.5,748.5 379.5,748.5 372.5,748.5C 371.848,747.275 370.681,746.608 369,746.5C 367.615,746.514 366.449,746.848 365.5,747.5C 363.833,747.5 362.167,747.5 360.5,747.5C 360.38,746.414 359.713,745.747 358.5,745.5C 357.584,745.543 356.917,745.876 356.5,746.5C 355.5,746.5 354.5,746.5 353.5,746.5C 353.38,745.414 352.713,744.747 351.5,744.5C 350.584,744.543 349.917,744.876 349.5,745.5C 347.833,745.5 346.167,745.5 344.5,745.5C 344.119,744.069 343.119,743.236 341.5,743C 335.409,741.816 329.409,740.316 323.5,738.5C 322.893,738.624 322.56,738.957 322.5,739.5C 321.833,739.5 321.167,739.5 320.5,739.5C 313.262,735.555 305.595,732.055 297.5,729C 280.15,720.502 264.816,709.336 251.5,695.5 Z M 313.5,696.5 C 363.834,696.333 414.168,696.5 464.5,697C 462.937,698.736 461.27,700.236 459.5,701.5C 452.632,706.098 445.632,710.431 438.5,714.5C 438.167,714.5 437.833,714.5 437.5,714.5C 432.989,715.931 428.655,717.598 424.5,719.5C 423.833,719.5 423.167,719.5 422.5,719.5C 420.302,719.875 418.302,720.542 416.5,721.5C 415.5,721.5 414.5,721.5 413.5,721.5C 412.508,721.328 411.842,721.662 411.5,722.5C 410.833,722.5 410.167,722.5 409.5,722.5C 407.265,722.205 405.265,722.539 403.5,723.5C 402.5,723.5 401.5,723.5 400.5,723.5C 392.833,723.5 385.167,723.5 377.5,723.5C 376.5,723.5 375.5,723.5 374.5,723.5C 373.432,722.566 372.099,722.232 370.5,722.5C 369.5,722.5 368.5,722.5 367.5,722.5C 347.139,718.652 329.139,709.985 313.5,696.5 Z"/></g>
<g><path style="opacity:0.997" fill="#2f2f2f" d="M 565.5,712.5 C 559.099,736.703 551.099,760.37 541.5,783.5C 541.97,784.463 542.637,784.463 543.5,783.5C 543.833,783.5 544.167,783.5 544.5,783.5C 546.948,784.473 549.615,784.806 552.5,784.5C 555.698,785.036 558.365,784.369 560.5,782.5C 561.833,782.5 563.167,782.5 564.5,782.5C 566.304,783.162 568.304,783.495 570.5,783.5C 572.952,783.461 574.952,782.794 576.5,781.5C 579.5,781.5 582.5,781.5 585.5,781.5C 587.425,789.899 588.092,798.566 587.5,807.5C 550.833,807.5 514.167,807.5 477.5,807.5C 477.5,801.5 477.5,795.5 477.5,789.5C 479.781,789.923 481.448,789.256 482.5,787.5C 483.167,787.5 483.833,787.5 484.5,787.5C 486.169,788.66 488.003,788.66 490,787.5C 491.95,787.293 493.116,786.293 493.5,784.5C 493.833,784.5 494.167,784.5 494.5,784.5C 499.664,783.281 504.164,780.281 508,775.5C 513.926,767.649 518.093,759.315 520.5,750.5C 520.5,750.167 520.5,749.833 520.5,749.5C 522.424,749.289 522.757,748.623 521.5,747.5C 521.5,747.167 521.5,746.833 521.5,746.5C 522.376,746.631 523.043,746.298 523.5,745.5C 524.653,744.313 524.653,743.313 523.5,742.5C 523.5,742.167 523.5,741.833 523.5,741.5C 525.424,741.289 525.757,740.623 524.5,739.5C 524.5,739.167 524.5,738.833 524.5,738.5C 525.75,738.423 526.583,737.756 527,736.5C 530.735,725.795 534.568,715.129 538.5,704.5C 538.376,703.893 538.043,703.56 537.5,703.5C 537.5,703.167 537.5,702.833 537.5,702.5C 538.376,702.631 539.043,702.298 539.5,701.5C 540.167,699.833 540.833,698.167 541.5,696.5C 551.483,695.334 561.483,695.168 571.5,696C 569.398,701.474 567.398,706.974 565.5,712.5 Z"/></g>
<g><path style="opacity:0.998" fill="#2f2f2f" d="M 739.5,696.5 C 756.992,695.503 774.659,695.17 792.5,695.5C 799.412,708.835 805.412,722.669 810.5,737C 810.836,738.03 811.503,738.53 812.5,738.5C 812.5,739.167 812.5,739.833 812.5,740.5C 811.485,741.46 811.485,742.627 812.5,744C 812.836,745.03 813.503,745.53 814.5,745.5C 814.5,746.167 814.5,746.833 814.5,747.5C 813.485,748.46 813.485,749.627 814.5,751C 814.836,752.03 815.503,752.53 816.5,752.5C 816.5,753.167 816.5,753.833 816.5,754.5C 815.243,755.623 815.576,756.289 817.5,756.5C 817.5,757.167 817.5,757.833 817.5,758.5C 816.903,758.735 816.57,759.235 816.5,760C 817.274,763.308 817.94,766.641 818.5,770C 818.684,771.376 819.351,772.209 820.5,772.5C 820.5,774.167 820.5,775.833 820.5,777.5C 819.532,779.607 819.198,781.941 819.5,784.5C 821.833,784.5 824.167,784.5 826.5,784.5C 829.698,785.036 832.365,784.369 834.5,782.5C 836.167,782.5 837.833,782.5 839.5,782.5C 840.964,783.16 842.631,783.493 844.5,783.5C 846.64,783.444 848.306,782.777 849.5,781.5C 852.167,781.5 854.833,781.5 857.5,781.5C 857.842,782.338 858.508,782.672 859.5,782.5C 859.5,790.833 859.5,799.167 859.5,807.5C 814.5,807.5 769.5,807.5 724.5,807.5C 724.823,800.978 724.49,794.645 723.5,788.5C 724.568,787.566 725.901,787.232 727.5,787.5C 728.097,788.139 728.93,788.472 730,788.5C 731.376,788.316 732.209,787.649 732.5,786.5C 733.5,786.5 734.5,786.5 735.5,786.5C 735.735,787.097 736.235,787.43 737,787.5C 740.131,786.986 742.631,785.652 744.5,783.5C 744.833,783.5 745.167,783.5 745.5,783.5C 750.828,781.51 754.828,777.51 757.5,771.5C 757.376,770.893 757.043,770.56 756.5,770.5C 756.5,769.833 756.5,769.167 756.5,768.5C 758.424,768.289 758.757,767.623 757.5,766.5C 757.5,765.5 757.5,764.5 757.5,763.5C 758.777,762.306 759.444,760.64 759.5,758.5C 755.411,736.902 748.744,716.235 739.5,696.5 Z"/></g>
<g><path style="opacity:0.667" fill="#868686" d="M 459.5,701.5 C 459.833,701.5 460.167,701.5 460.5,701.5C 453.996,707.014 446.829,711.68 439,715.5C 438.601,715.272 438.435,714.938 438.5,714.5C 445.632,710.431 452.632,706.098 459.5,701.5 Z"/></g>
<g><path style="opacity:0.667" fill="#898989" d="M 537.5,703.5 C 538.043,703.56 538.376,703.893 538.5,704.5C 534.568,715.129 530.735,725.795 527,736.5C 526.583,737.756 525.75,738.423 524.5,738.5C 528.659,726.681 532.992,715.014 537.5,703.5 Z"/></g>
<g><path style="opacity:0.333" fill="#8e8e8e" d="M 248.5,693.5 C 249.492,693.328 250.158,693.662 250.5,694.5C 250.5,695.167 250.833,695.5 251.5,695.5C 264.816,709.336 280.15,720.502 297.5,729C 305.595,732.055 313.262,735.555 320.5,739.5C 297.09,731.799 276.09,719.966 257.5,704C 253.893,700.902 250.893,697.402 248.5,693.5 Z"/></g>
<g><path style="opacity:0.5" fill="#909090" d="M 437.5,714.5 C 436.426,716.284 434.76,717.451 432.5,718C 430.129,718.735 427.795,719.568 425.5,720.5C 424.893,720.376 424.56,720.043 424.5,719.5C 428.655,717.598 432.989,715.931 437.5,714.5 Z"/></g>
<g><path style="opacity:0.333" fill="#8e8e8e" d="M 517.5,695.5 C 518.167,695.5 518.5,695.833 518.5,696.5C 492.785,722.528 461.785,738.861 425.5,745.5C 425.791,744.351 426.624,743.684 428,743.5C 463.033,736.74 492.867,720.74 517.5,695.5 Z"/></g>
<g><path style="opacity:0.5" fill="#8c8c8c" d="M 310.5,695.5 C 311.791,695.263 312.791,695.596 313.5,696.5C 329.139,709.985 347.139,718.652 367.5,722.5C 345.454,720.246 326.454,711.246 310.5,695.5 Z"/></g>
<g><path style="opacity:0.5" fill="#8e8e8e" d="M 422.5,719.5 C 421.685,721.302 420.185,722.302 418,722.5C 417.235,722.43 416.735,722.097 416.5,721.5C 418.302,720.542 420.302,719.875 422.5,719.5 Z"/></g>
<g><path style="opacity:0.553" fill="#aeaeae" d="M 413.5,721.5 C 413.289,723.424 412.623,723.757 411.5,722.5C 411.842,721.662 412.508,721.328 413.5,721.5 Z"/></g>
<g><path style="opacity:0.553" fill="#aaaaaa" d="M 370.5,722.5 C 372.099,722.232 373.432,722.566 374.5,723.5C 374.083,724.124 373.416,724.457 372.5,724.5C 371.287,724.253 370.62,723.586 370.5,722.5 Z"/></g>
<g><path style="opacity:0.467" fill="#959595" d="M 377.5,723.5 C 385.167,723.5 392.833,723.5 400.5,723.5C 397.062,724.823 393.229,725.49 389,725.5C 384.771,725.49 380.938,724.823 377.5,723.5 Z"/></g>
<g><path style="opacity:0.667" fill="#a5a5a5" d="M 409.5,722.5 C 409.03,723.693 408.03,724.36 406.5,724.5C 405.274,724.48 404.274,724.147 403.5,723.5C 405.265,722.539 407.265,722.205 409.5,722.5 Z"/></g>
<g><path style="opacity:0.22" fill="#8c8c8c" d="M 565.5,712.5 C 566.167,712.5 566.833,712.5 567.5,712.5C 560.628,736.116 552.961,759.45 544.5,782.5C 543.833,782.5 543.5,782.833 543.5,783.5C 542.637,784.463 541.97,784.463 541.5,783.5C 551.099,760.37 559.099,736.703 565.5,712.5 Z"/></g>
<g><path style="opacity:0.5" fill="#898989" d="M 738.5,696.5 C 738.833,696.5 739.167,696.5 739.5,696.5C 748.744,716.235 755.411,736.902 759.5,758.5C 759.444,760.64 758.777,762.306 757.5,763.5C 757.695,755.308 756.529,747.308 754,739.5C 748.82,725.146 743.653,710.812 738.5,696.5 Z"/></g>
<g><path style="opacity:0.22" fill="#828282" d="M 791.5,692.5 C 792.167,692.5 792.833,692.5 793.5,692.5C 800.938,707.376 807.271,722.71 812.5,738.5C 811.503,738.53 810.836,738.03 810.5,737C 805.412,722.669 799.412,708.835 792.5,695.5C 792.5,695.167 792.5,694.833 792.5,694.5C 792.167,693.833 791.833,693.167 791.5,692.5 Z"/></g>
<g><path style="opacity:0.5" fill="#969696" d="M 524.5,739.5 C 525.757,740.623 525.424,741.289 523.5,741.5C 523.328,740.508 523.662,739.842 524.5,739.5 Z"/></g>
<g><path style="opacity:0.22" fill="#999999" d="M 344.5,745.5 C 336.888,744.118 329.554,742.118 322.5,739.5C 322.56,738.957 322.893,738.624 323.5,738.5C 329.409,740.316 335.409,741.816 341.5,743C 343.119,743.236 344.119,744.069 344.5,745.5 Z"/></g>
<g><path style="opacity:0.5" fill="#989898" d="M 812.5,740.5 C 813.537,741.93 814.204,743.597 814.5,745.5C 813.503,745.53 812.836,745.03 812.5,744C 811.485,742.627 811.485,741.46 812.5,740.5 Z"/></g>
<g><path style="opacity:0.22" fill="#9d9d9d" d="M 353.5,746.5 C 351.901,746.768 350.568,746.434 349.5,745.5C 349.917,744.876 350.584,744.543 351.5,744.5C 352.713,744.747 353.38,745.414 353.5,746.5 Z"/></g>
<g><path style="opacity:0.5" fill="#9b9b9b" d="M 523.5,742.5 C 524.653,743.313 524.653,744.313 523.5,745.5C 523.043,746.298 522.376,746.631 521.5,746.5C 521.66,744.847 522.326,743.514 523.5,742.5 Z"/></g>
<g><path style="opacity:0.333" fill="#a8a8a8" d="M 360.5,747.5 C 358.901,747.768 357.568,747.434 356.5,746.5C 356.917,745.876 357.584,745.543 358.5,745.5C 359.713,745.747 360.38,746.414 360.5,747.5 Z"/></g>
<g><path style="opacity:0.333" fill="#838383" d="M 422.5,745.5 C 418.409,746.895 414.076,747.562 409.5,747.5C 412.514,745.65 416.014,744.65 420,744.5C 421.07,744.528 421.903,744.861 422.5,745.5 Z"/></g>
<g><path style="opacity:0.333" fill="#8d8d8d" d="M 372.5,748.5 C 369.941,748.802 367.607,748.468 365.5,747.5C 366.449,746.848 367.615,746.514 369,746.5C 370.681,746.608 371.848,747.275 372.5,748.5 Z"/></g>
<g><path style="opacity:0.333" fill="#787878" d="M 406.5,747.5 C 402.366,748.485 398.032,748.818 393.5,748.5C 395.223,747.2 397.39,746.533 400,746.5C 402.361,746.504 404.527,746.837 406.5,747.5 Z"/></g>
<g><path style="opacity:0.333" fill="#868686" d="M 521.5,747.5 C 522.757,748.623 522.424,749.289 520.5,749.5C 520.328,748.508 520.662,747.842 521.5,747.5 Z"/></g>
<g><path style="opacity:0.5" fill="#929292" d="M 814.5,747.5 C 815.537,748.93 816.204,750.597 816.5,752.5C 815.503,752.53 814.836,752.03 814.5,751C 813.485,749.627 813.485,748.46 814.5,747.5 Z"/></g>
<g><path style="opacity:0.333" fill="#939393" d="M 816.5,754.5 C 817.338,754.842 817.672,755.508 817.5,756.5C 815.576,756.289 815.243,755.623 816.5,754.5 Z"/></g>
<g><path style="opacity:0.443" fill="#7c7c7c" d="M 520.5,750.5 C 518.093,759.315 513.926,767.649 508,775.5C 504.164,780.281 499.664,783.281 494.5,784.5C 499.235,782.028 503.402,778.694 507,774.5C 512.302,766.891 516.802,758.891 520.5,750.5 Z"/></g>
<g><path style="opacity:0.5" fill="#a0a0a0" d="M 817.5,758.5 C 819.13,762.911 820.13,767.578 820.5,772.5C 819.351,772.209 818.684,771.376 818.5,770C 817.94,766.641 817.274,763.308 816.5,760C 816.57,759.235 816.903,758.735 817.5,758.5 Z"/></g>
<g><path style="opacity:0.5" fill="#a3a3a3" d="M 757.5,766.5 C 758.757,767.623 758.424,768.289 756.5,768.5C 756.328,767.508 756.662,766.842 757.5,766.5 Z"/></g>
<g><path style="opacity:0.667" fill="#999999" d="M 756.5,770.5 C 757.043,770.56 757.376,770.893 757.5,771.5C 754.828,777.51 750.828,781.51 745.5,783.5C 750.291,780.049 753.958,775.715 756.5,770.5 Z"/></g>
<g><path style="opacity:0.535" fill="#c3c3c3" d="M 820.5,777.5 C 821.451,778.919 821.784,780.585 821.5,782.5C 823.167,782.5 824.833,782.5 826.5,782.5C 826.5,783.167 826.5,783.833 826.5,784.5C 824.167,784.5 821.833,784.5 819.5,784.5C 819.198,781.941 819.532,779.607 820.5,777.5 Z"/></g>
<g><path style="opacity:0.304" fill="#d7d7d7" d="M 860.5,781.5 C 860.5,782.167 860.167,782.5 859.5,782.5C 858.508,782.672 857.842,782.338 857.5,781.5C 858.5,780.167 859.5,780.167 860.5,781.5 Z"/></g>
<g><path style="opacity:0.5" fill="#989898" d="M 849.5,781.5 C 848.306,782.777 846.64,783.444 844.5,783.5C 842.631,783.493 840.964,783.16 839.5,782.5C 842.625,781.521 845.958,781.187 849.5,781.5 Z"/></g>
<g><path style="opacity:0.5" fill="#a9a9a9" d="M 544.5,782.5 C 547.167,782.5 549.833,782.5 552.5,782.5C 552.5,783.167 552.5,783.833 552.5,784.5C 549.615,784.806 546.948,784.473 544.5,783.5C 544.5,783.167 544.5,782.833 544.5,782.5 Z"/></g>
<g><path style="opacity:0.5" fill="#595959" d="M 552.5,782.5 C 555.167,782.5 557.833,782.5 560.5,782.5C 558.365,784.369 555.698,785.036 552.5,784.5C 552.5,783.833 552.5,783.167 552.5,782.5 Z"/></g>
<g><path style="opacity:0.667" fill="#a3a3a3" d="M 576.5,781.5 C 574.952,782.794 572.952,783.461 570.5,783.5C 568.304,783.495 566.304,783.162 564.5,782.5C 568.298,781.517 572.298,781.183 576.5,781.5 Z"/></g>
<g><path style="opacity:0.507" fill="#999999" d="M 586.5,809.5 C 586.833,808.833 587.167,808.167 587.5,807.5C 588.092,798.566 587.425,789.899 585.5,781.5C 586.542,780.209 587.708,780.209 589,781.5C 589.667,790.5 589.667,799.5 589,808.5C 588.329,809.252 587.496,809.586 586.5,809.5 Z"/></g>
<g><path style="opacity:0.5" fill="#707070" d="M 826.5,782.5 C 829.167,782.5 831.833,782.5 834.5,782.5C 832.365,784.369 829.698,785.036 826.5,784.5C 826.5,783.833 826.5,783.167 826.5,782.5 Z"/></g>
<g><path style="opacity:0.5" fill="#959595" d="M 744.5,783.5 C 742.631,785.652 740.131,786.986 737,787.5C 736.235,787.43 735.735,787.097 735.5,786.5C 738.341,785.331 741.341,784.331 744.5,783.5 Z"/></g>
<g><path style="opacity:0.481" fill="#818181" d="M 493.5,784.5 C 493.116,786.293 491.95,787.293 490,787.5C 488.003,788.66 486.169,788.66 484.5,787.5C 487.443,786.633 490.443,785.633 493.5,784.5 Z"/></g>
<g><path style="opacity:0.553" fill="#c2c2c2" d="M 732.5,786.5 C 732.209,787.649 731.376,788.316 730,788.5C 728.93,788.472 728.097,788.139 727.5,787.5C 728.919,786.549 730.585,786.216 732.5,786.5 Z"/></g>
<g><path style="opacity:0.502" fill="#5c5c5c" d="M 482.5,787.5 C 481.448,789.256 479.781,789.923 477.5,789.5C 477.5,795.5 477.5,801.5 477.5,807.5C 514.167,807.5 550.833,807.5 587.5,807.5C 587.167,808.167 586.833,808.833 586.5,809.5C 549.832,809.667 513.165,809.5 476.5,809C 475.355,802.248 475.189,795.414 476,788.5C 478.041,787.577 480.208,787.244 482.5,787.5 Z"/></g>
<g><path style="opacity:0.501" fill="#636363" d="M 860.5,781.5 C 861.828,790.568 861.828,799.735 860.5,809C 814.833,809.667 769.167,809.667 723.5,809C 722.173,802.068 722.173,795.235 723.5,788.5C 724.49,794.645 724.823,800.978 724.5,807.5C 769.5,807.5 814.5,807.5 859.5,807.5C 859.5,799.167 859.5,790.833 859.5,782.5C 860.167,782.5 860.5,782.167 860.5,781.5 Z"/></g>
</svg>
