<?xml version="1.0" encoding="UTF-8"?>
<!DOCTYPE svg PUBLIC "-//W3C//DTD SVG 1.1//EN" "http://www.w3.org/Graphics/SVG/1.1/DTD/svg11.dtd">
<svg xmlns="http://www.w3.org/2000/svg" version="1.1" width="1080px" height="1080px" style="shape-rendering:geometricPrecision; text-rendering:geometricPrecision; image-rendering:optimizeQuality; fill-rule:evenodd; clip-rule:evenodd" xmlns:xlink="http://www.w3.org/1999/xlink">
<g><path style="opacity:0.5" fill="#7c7c7c" d="M 375.5,347.5 C 375.5,348.167 375.5,348.833 375.5,349.5C 372.615,349.806 369.948,349.473 367.5,348.5C 369.948,347.527 372.615,347.194 375.5,347.5 Z"/></g>
<g><path style="opacity:0.444" fill="#b2b2b2" d="M 375.5,347.5 C 380.167,347.5 384.833,347.5 389.5,347.5C 389.833,348.167 390.167,348.833 390.5,349.5C 385.5,349.5 380.5,349.5 375.5,349.5C 375.5,348.833 375.5,348.167 375.5,347.5 Z"/></g>
<g><path style="opacity:0.5" fill="#707070" d="M 389.5,347.5 C 393.371,347.185 397.038,347.518 400.5,348.5C 397.375,349.479 394.042,349.813 390.5,349.5C 390.167,348.833 389.833,348.167 389.5,347.5 Z"/></g>
<g><path style="opacity:0.5" fill="#707070" d="M 359.5,348.5 C 359.38,349.586 358.713,350.253 357.5,350.5C 356.584,350.457 355.917,350.124 355.5,349.5C 356.568,348.566 357.901,348.232 359.5,348.5 Z"/></g>
<g><path style="opacity:0.997" fill="#f8f8f8" d="M 359.5,348.5 C 362.167,348.5 364.833,348.5 367.5,348.5C 369.948,349.473 372.615,349.806 375.5,349.5C 380.5,349.5 385.5,349.5 390.5,349.5C 394.042,349.813 397.375,349.479 400.5,348.5C 402.833,348.5 405.167,348.5 407.5,348.5C 407.791,349.649 408.624,350.316 410,350.5C 411.07,350.472 411.903,350.139 412.5,349.5C 413.5,349.5 414.5,349.5 415.5,349.5C 416.053,351.552 417.053,351.885 418.5,350.5C 419.5,350.5 420.5,350.5 421.5,350.5C 422.053,352.552 423.053,352.885 424.5,351.5C 425.167,351.5 425.833,351.5 426.5,351.5C 427.719,353.301 429.552,354.301 432,354.5C 432.765,354.43 433.265,354.097 433.5,353.5C 435.565,353.517 437.565,353.85 439.5,354.5C 465.305,362.656 488.471,375.656 509,393.5C 509.399,393.272 509.565,392.938 509.5,392.5C 511.858,394.529 514.192,396.529 516.5,398.5C 517.438,401.157 519.438,403.49 522.5,405.5C 544.126,429.229 559.459,456.729 568.5,488C 568.836,489.03 569.503,489.53 570.5,489.5C 570.5,490.167 570.5,490.833 570.5,491.5C 569.243,492.623 569.576,493.289 571.5,493.5C 572.482,496.763 573.149,500.097 573.5,503.5C 572.876,503.917 572.543,504.584 572.5,505.5C 573.231,508.653 573.897,511.819 574.5,515C 574.684,516.376 575.351,517.209 576.5,517.5C 576.5,518.833 576.5,520.167 576.5,521.5C 575.876,521.917 575.543,522.584 575.5,523.5C 575.747,524.713 576.414,525.38 577.5,525.5C 577.5,527.167 577.5,528.833 577.5,530.5C 576.527,532.948 576.194,535.615 576.5,538.5C 576.5,546.167 576.5,553.833 576.5,561.5C 576.232,563.099 576.566,564.432 577.5,565.5C 577.5,567.5 577.5,569.5 577.5,571.5C 575.448,572.053 575.115,573.053 576.5,574.5C 576.5,574.833 576.5,575.167 576.5,575.5C 558.674,576.497 540.674,576.83 522.5,576.5C 522.737,575.209 522.404,574.209 521.5,573.5C 521.5,572.167 521.5,570.833 521.5,569.5C 522.824,565.893 523.491,561.893 523.5,557.5C 523.491,553.107 522.824,549.107 521.5,545.5C 521.5,544.5 521.5,543.5 521.5,542.5C 522.156,541.378 522.489,540.045 522.5,538.5C 522.415,536.667 521.748,535.334 520.5,534.5C 520.5,533.5 520.5,532.5 520.5,531.5C 521.152,530.551 521.486,529.385 521.5,528C 520.721,522.825 519.887,517.658 519,512.5C 518.878,510.563 518.045,509.23 516.5,508.5C 516.5,507.833 516.5,507.167 516.5,506.5C 517.757,505.377 517.424,504.711 515.5,504.5C 515.5,503.833 515.5,503.167 515.5,502.5C 516.097,502.265 516.43,501.765 516.5,501C 516.302,498.815 515.302,497.315 513.5,496.5C 513.5,495.833 513.5,495.167 513.5,494.5C 503.466,448.309 478.799,411.809 439.5,385C 431.067,380.242 422.4,377.075 413.5,375.5C 412.833,375.5 412.167,375.5 411.5,375.5C 411.289,373.576 410.623,373.243 409.5,374.5C 408.5,374.5 407.5,374.5 406.5,374.5C 406.119,373.069 405.119,372.236 403.5,372C 401.288,371.211 399.288,371.378 397.5,372.5C 396.167,372.5 394.833,372.5 393.5,372.5C 392.486,371.235 390.986,370.569 389,370.5C 387.293,370.508 385.793,370.842 384.5,371.5C 382.833,371.5 381.167,371.5 379.5,371.5C 377.866,370.839 376.033,370.506 374,370.5C 371.705,370.547 369.871,371.213 368.5,372.5C 367.5,372.5 366.5,372.5 365.5,372.5C 363.712,371.378 361.712,371.211 359.5,372C 357.563,372.122 356.23,372.955 355.5,374.5C 354.833,374.5 354.167,374.5 353.5,374.5C 353.265,373.903 352.765,373.57 352,373.5C 349.815,373.698 348.315,374.698 347.5,376.5C 346.833,376.5 346.167,376.5 345.5,376.5C 337.602,377.754 329.935,380.587 322.5,385C 287.668,408.464 265.001,440.631 254.5,481.5C 254.624,482.107 254.957,482.44 255.5,482.5C 255.5,483.167 255.5,483.833 255.5,484.5C 253.576,484.711 253.243,485.377 254.5,486.5C 254.5,487.167 254.5,487.833 254.5,488.5C 252.699,489.719 251.699,491.552 251.5,494C 251.57,494.765 251.903,495.265 252.5,495.5C 252.5,496.5 252.5,497.5 252.5,498.5C 250.955,499.23 250.122,500.563 250,502.5C 249.22,504.387 249.387,506.054 250.5,507.5C 250.5,508.5 250.5,509.5 250.5,510.5C 249.307,510.97 248.64,511.97 248.5,513.5C 248.52,514.726 248.853,515.726 249.5,516.5C 249.5,518.167 249.5,519.833 249.5,521.5C 248.213,522.871 247.547,524.705 247.5,527C 247.506,529.033 247.839,530.866 248.5,532.5C 248.5,536.5 248.5,540.5 248.5,544.5C 247.84,545.964 247.507,547.631 247.5,549.5C 247.556,551.64 248.223,553.306 249.5,554.5C 249.5,556.833 249.5,559.167 249.5,561.5C 248.876,561.917 248.543,562.584 248.5,563.5C 248.747,564.713 249.414,565.38 250.5,565.5C 250.5,567.167 250.5,568.833 250.5,570.5C 249.876,570.917 249.543,571.584 249.5,572.5C 249.747,573.713 250.414,574.38 251.5,574.5C 251.5,574.833 251.5,575.167 251.5,575.5C 251.5,576.167 251.167,576.5 250.5,576.5C 232.488,576.833 214.488,576.5 196.5,575.5C 196.137,574.817 195.804,574.15 195.5,573.5C 195.5,571.833 195.5,570.167 195.5,568.5C 195.843,566.517 195.176,565.183 193.5,564.5C 193.5,563.167 193.5,561.833 193.5,560.5C 194.833,552.5 194.833,544.5 193.5,536.5C 193.5,535.167 193.5,533.833 193.5,532.5C 194.748,531.666 195.415,530.333 195.5,528.5C 195.489,526.955 195.156,525.622 194.5,524.5C 194.5,523.5 194.5,522.5 194.5,521.5C 195.586,521.38 196.253,520.713 196.5,519.5C 196.457,518.584 196.124,517.917 195.5,517.5C 195.5,516.5 195.5,515.5 195.5,514.5C 196.649,514.209 197.316,513.376 197.5,512C 198.103,508.819 198.769,505.653 199.5,502.5C 199.457,501.584 199.124,500.917 198.5,500.5C 198.5,499.833 198.5,499.167 198.5,498.5C 200.424,498.289 200.757,497.623 199.5,496.5C 199.5,495.833 199.5,495.167 199.5,494.5C 201.185,493.816 202.185,492.483 202.5,490.5C 202.376,489.893 202.043,489.56 201.5,489.5C 201.5,488.833 201.5,488.167 201.5,487.5C 202.497,487.53 203.164,487.03 203.5,486C 204.401,483.129 205.401,480.296 206.5,477.5C 206.376,476.893 206.043,476.56 205.5,476.5C 205.5,476.167 205.5,475.833 205.5,475.5C 207.363,474.033 208.696,472.033 209.5,469.5C 209.376,468.893 209.043,468.56 208.5,468.5C 208.5,468.167 208.5,467.833 208.5,467.5C 210.488,465.399 212.155,462.899 213.5,460C 213.272,459.601 212.938,459.435 212.5,459.5C 212.5,459.167 212.5,458.833 212.5,458.5C 233.435,416.232 264.769,384.232 306.5,362.5C 308.297,361.27 310.297,360.604 312.5,360.5C 312.435,360.938 312.601,361.272 313,361.5C 317.574,359.641 322.241,357.975 327,356.5C 328.03,356.164 328.53,355.497 328.5,354.5C 329.167,354.5 329.833,354.5 330.5,354.5C 331.623,355.757 332.289,355.424 332.5,353.5C 333.167,353.5 333.833,353.5 334.5,353.5C 335.601,354.598 336.934,354.765 338.5,354C 340.119,353.764 341.119,352.931 341.5,351.5C 342.167,351.5 342.833,351.5 343.5,351.5C 344.623,352.757 345.289,352.424 345.5,350.5C 348.807,349.949 352.14,349.616 355.5,349.5C 355.917,350.124 356.584,350.457 357.5,350.5C 358.713,350.253 359.38,349.586 359.5,348.5 Z M 379.5,371.5 C 381.167,371.5 382.833,371.5 384.5,371.5C 387.287,372.477 390.287,372.81 393.5,372.5C 394.833,372.5 396.167,372.5 397.5,372.5C 400.345,373.344 403.345,374.01 406.5,374.5C 407.5,374.5 408.5,374.5 409.5,374.5C 409.842,375.338 410.508,375.672 411.5,375.5C 412.167,375.5 412.833,375.5 413.5,375.5C 437.495,383.267 457.662,396.934 474,416.5C 492.387,439.806 505.553,465.806 513.5,494.5C 513.5,495.167 513.5,495.833 513.5,496.5C 513.875,498.698 514.542,500.698 515.5,502.5C 515.5,503.167 515.5,503.833 515.5,504.5C 515.328,505.492 515.662,506.158 516.5,506.5C 516.5,507.167 516.5,507.833 516.5,508.5C 517.745,516.312 519.079,523.978 520.5,531.5C 520.5,532.5 520.5,533.5 520.5,534.5C 520.194,537.385 520.527,540.052 521.5,542.5C 521.5,543.5 521.5,544.5 521.5,545.5C 521.5,553.5 521.5,561.5 521.5,569.5C 521.5,570.833 521.5,572.167 521.5,573.5C 431.712,575.493 341.712,576.16 251.5,575.5C 251.5,575.167 251.5,574.833 251.5,574.5C 251.768,572.901 251.434,571.568 250.5,570.5C 250.5,568.833 250.5,567.167 250.5,565.5C 250.768,563.901 250.434,562.568 249.5,561.5C 249.5,559.167 249.5,556.833 249.5,554.5C 249.813,550.958 249.479,547.625 248.5,544.5C 248.5,540.5 248.5,536.5 248.5,532.5C 249.482,529.038 249.815,525.371 249.5,521.5C 249.5,519.833 249.5,518.167 249.5,516.5C 250.461,514.735 250.795,512.735 250.5,510.5C 250.5,509.5 250.5,508.5 250.5,507.5C 251.475,504.689 252.142,501.689 252.5,498.5C 252.5,497.5 252.5,496.5 252.5,495.5C 253.612,493.401 254.279,491.067 254.5,488.5C 254.5,487.833 254.5,487.167 254.5,486.5C 255.338,486.158 255.672,485.492 255.5,484.5C 255.5,483.833 255.5,483.167 255.5,482.5C 264.922,445.592 284.588,415.426 314.5,392C 324.093,385.212 334.427,380.046 345.5,376.5C 346.167,376.5 346.833,376.5 347.5,376.5C 349.698,376.125 351.698,375.458 353.5,374.5C 354.167,374.5 354.833,374.5 355.5,374.5C 359.011,374.101 362.344,373.434 365.5,372.5C 366.5,372.5 367.5,372.5 368.5,372.5C 372.371,372.815 376.038,372.482 379.5,371.5 Z"/></g>
<g><path style="opacity:0.667" fill="#696969" d="M 407.5,348.5 C 409.415,348.216 411.081,348.549 412.5,349.5C 411.903,350.139 411.07,350.472 410,350.5C 408.624,350.316 407.791,349.649 407.5,348.5 Z"/></g>
<g><path style="opacity:0.5" fill="#888888" d="M 415.5,349.5 C 416.791,349.263 417.791,349.596 418.5,350.5C 417.053,351.885 416.053,351.552 415.5,349.5 Z"/></g>
<g><path style="opacity:0.5" fill="#848484" d="M 421.5,350.5 C 422.791,350.263 423.791,350.596 424.5,351.5C 423.053,352.885 422.053,352.552 421.5,350.5 Z"/></g>
<g><path style="opacity:0.667" fill="#727272" d="M 345.5,350.5 C 345.289,352.424 344.623,352.757 343.5,351.5C 343.842,350.662 344.508,350.328 345.5,350.5 Z"/></g>
<g><path style="opacity:0.443" fill="#a4a4a4" d="M 341.5,351.5 C 341.119,352.931 340.119,353.764 338.5,354C 336.934,354.765 335.601,354.598 334.5,353.5C 336.657,352.593 338.99,351.927 341.5,351.5 Z"/></g>
<g><path style="opacity:0.5" fill="#909090" d="M 426.5,351.5 C 429.067,351.721 431.401,352.388 433.5,353.5C 433.265,354.097 432.765,354.43 432,354.5C 429.552,354.301 427.719,353.301 426.5,351.5 Z"/></g>
<g><path style="opacity:0.553" fill="#707070" d="M 332.5,353.5 C 332.289,355.424 331.623,355.757 330.5,354.5C 330.842,353.662 331.508,353.328 332.5,353.5 Z"/></g>
<g><path style="opacity:0.333" fill="#a7a7a7" d="M 328.5,354.5 C 328.53,355.497 328.03,356.164 327,356.5C 322.241,357.975 317.574,359.641 313,361.5C 312.601,361.272 312.435,360.938 312.5,360.5C 317.525,357.932 322.859,355.932 328.5,354.5 Z"/></g>
<g><path style="opacity:0.5" fill="#787878" d="M 379.5,371.5 C 376.038,372.482 372.371,372.815 368.5,372.5C 369.871,371.213 371.705,370.547 374,370.5C 376.033,370.506 377.866,370.839 379.5,371.5 Z"/></g>
<g><path style="opacity:0.333" fill="#7c7c7c" d="M 393.5,372.5 C 390.287,372.81 387.287,372.477 384.5,371.5C 385.793,370.842 387.293,370.508 389,370.5C 390.986,370.569 392.486,371.235 393.5,372.5 Z"/></g>
<g><path style="opacity:0.5" fill="#979797" d="M 406.5,374.5 C 403.345,374.01 400.345,373.344 397.5,372.5C 399.288,371.378 401.288,371.211 403.5,372C 405.119,372.236 406.119,373.069 406.5,374.5 Z"/></g>
<g><path style="opacity:0.22" fill="#7c7c7c" d="M 365.5,372.5 C 362.344,373.434 359.011,374.101 355.5,374.5C 356.23,372.955 357.563,372.122 359.5,372C 361.712,371.211 363.712,371.378 365.5,372.5 Z"/></g>
<g><path style="opacity:0.22" fill="#9c9c9c" d="M 439.5,354.5 C 466.126,361.473 489.459,374.14 509.5,392.5C 509.565,392.938 509.399,393.272 509,393.5C 488.471,375.656 465.305,362.656 439.5,354.5 Z"/></g>
<g><path style="opacity:0.22" fill="#818181" d="M 411.5,375.5 C 410.508,375.672 409.842,375.338 409.5,374.5C 410.623,373.243 411.289,373.576 411.5,375.5 Z"/></g>
<g><path style="opacity:0.22" fill="#8b8b8b" d="M 353.5,374.5 C 351.698,375.458 349.698,376.125 347.5,376.5C 348.315,374.698 349.815,373.698 352,373.5C 352.765,373.57 353.265,373.903 353.5,374.5 Z"/></g>
<g><path style="opacity:0.504" fill="#646464" d="M 672.5,380.5 C 672.5,381.167 672.167,381.5 671.5,381.5C 667.03,380.514 662.363,380.181 657.5,380.5C 657.5,380.167 657.5,379.833 657.5,379.5C 661.981,378.352 666.648,378.185 671.5,379C 672.056,379.383 672.389,379.883 672.5,380.5 Z"/></g>
<g><path style="opacity:0.997" fill="#f8f8f8" d="M 657.5,380.5 C 662.363,380.181 667.03,380.514 671.5,381.5C 697.227,446.349 722.561,511.349 747.5,576.5C 729.923,576.825 712.423,576.492 695,575.5C 681.592,539.027 667.926,502.694 654,466.5C 639.671,502.832 626.171,539.498 613.5,576.5C 604.143,576.832 594.81,576.498 585.5,575.5C 587.307,572.819 587.974,570.152 587.5,567.5C 587.5,567.167 587.5,566.833 587.5,566.5C 589.363,565.033 590.696,563.033 591.5,560.5C 591.376,559.893 591.043,559.56 590.5,559.5C 590.433,558.041 590.766,556.708 591.5,555.5C 593.363,554.033 594.696,552.033 595.5,549.5C 595.376,548.893 595.043,548.56 594.5,548.5C 594.604,546.297 595.27,544.297 596.5,542.5C 598.185,541.816 599.185,540.483 599.5,538.5C 599.376,537.893 599.043,537.56 598.5,537.5C 598.5,537.167 598.5,536.833 598.5,536.5C 600.363,535.033 601.696,533.033 602.5,530.5C 602.376,529.893 602.043,529.56 601.5,529.5C 601.5,529.167 601.5,528.833 601.5,528.5C 603.881,526.088 605.548,523.088 606.5,519.5C 606.376,518.893 606.043,518.56 605.5,518.5C 605.5,518.167 605.5,517.833 605.5,517.5C 607.363,516.033 608.696,514.033 609.5,511.5C 609.376,510.893 609.043,510.56 608.5,510.5C 609.633,506.433 610.967,502.433 612.5,498.5C 614.284,497.426 615.451,495.76 616,493.5C 617.205,489.384 618.705,485.384 620.5,481.5C 620.376,480.893 620.043,480.56 619.5,480.5C 619.5,480.167 619.5,479.833 619.5,479.5C 621.363,478.033 622.696,476.033 623.5,473.5C 623.376,472.893 623.043,472.56 622.5,472.5C 622.433,471.041 622.766,469.708 623.5,468.5C 625.363,467.033 626.696,465.033 627.5,462.5C 627.376,461.893 627.043,461.56 626.5,461.5C 626.5,461.167 626.5,460.833 626.5,460.5C 628.363,459.033 629.696,457.033 630.5,454.5C 630.376,453.893 630.043,453.56 629.5,453.5C 629.433,452.041 629.766,450.708 630.5,449.5C 632.284,448.426 633.451,446.76 634,444.5C 638.735,431.461 643.568,418.461 648.5,405.5C 648.376,404.893 648.043,404.56 647.5,404.5C 647.433,403.041 647.766,401.708 648.5,400.5C 650.363,399.033 651.696,397.033 652.5,394.5C 652.376,393.893 652.043,393.56 651.5,393.5C 651.5,393.167 651.5,392.833 651.5,392.5C 654.04,388.952 656.04,384.952 657.5,380.5 Z M 653.5,469.5 C 667.02,504.559 680.02,539.893 692.5,575.5C 666.825,575.833 641.158,575.5 615.5,574.5C 628.177,539.465 640.844,504.465 653.5,469.5 Z"/></g>
<g><path style="opacity:0.333" fill="#979797" d="M 657.5,379.5 C 657.5,379.833 657.5,380.167 657.5,380.5C 656.04,384.952 654.04,388.952 651.5,392.5C 652.733,387.707 654.733,383.374 657.5,379.5 Z"/></g>
<g><path style="opacity:0.333" fill="#9f9f9f" d="M 651.5,393.5 C 652.043,393.56 652.376,393.893 652.5,394.5C 651.696,397.033 650.363,399.033 648.5,400.5C 649.264,397.982 650.264,395.649 651.5,393.5 Z"/></g>
<g><path style="opacity:0.333" fill="#6f6f6f" d="M 516.5,398.5 C 519.167,400.5 521.5,402.833 523.5,405.5C 523.167,405.5 522.833,405.5 522.5,405.5C 519.438,403.49 517.438,401.157 516.5,398.5 Z"/></g>
<g><path style="opacity:0.555" fill="#9d9d9d" d="M 513.5,494.5 C 505.553,465.806 492.387,439.806 474,416.5C 457.662,396.934 437.495,383.267 413.5,375.5C 422.4,377.075 431.067,380.242 439.5,385C 478.799,411.809 503.466,448.309 513.5,494.5 Z"/></g>
<g><path style="opacity:0.443" fill="#a0a0a0" d="M 306.5,362.5 C 264.769,384.232 233.435,416.232 212.5,458.5C 232.051,414.949 263.385,382.949 306.5,362.5 Z"/></g>
<g><path style="opacity:0.5" fill="#9f9f9f" d="M 647.5,404.5 C 648.043,404.56 648.376,404.893 648.5,405.5C 643.568,418.461 638.735,431.461 634,444.5C 633.451,446.76 632.284,448.426 630.5,449.5C 635.931,434.323 641.598,419.323 647.5,404.5 Z"/></g>
<g><path style="opacity:0.443" fill="#969696" d="M 345.5,376.5 C 334.427,380.046 324.093,385.212 314.5,392C 284.588,415.426 264.922,445.592 255.5,482.5C 254.957,482.44 254.624,482.107 254.5,481.5C 265.001,440.631 287.668,408.464 322.5,385C 329.935,380.587 337.602,377.754 345.5,376.5 Z"/></g>
<g><path style="opacity:0.333" fill="#a8a8a8" d="M 629.5,453.5 C 630.043,453.56 630.376,453.893 630.5,454.5C 629.696,457.033 628.363,459.033 626.5,460.5C 627.264,457.982 628.264,455.649 629.5,453.5 Z"/></g>
<g><path style="opacity:0.333" fill="#9d9d9d" d="M 626.5,461.5 C 627.043,461.56 627.376,461.893 627.5,462.5C 626.696,465.033 625.363,467.033 623.5,468.5C 624.264,465.982 625.264,463.649 626.5,461.5 Z"/></g>
<g><path style="opacity:0.333" fill="#9f9f9f" d="M 522.5,405.5 C 522.833,405.5 523.167,405.5 523.5,405.5C 545.881,429.58 561.547,457.58 570.5,489.5C 569.503,489.53 568.836,489.03 568.5,488C 559.459,456.729 544.126,429.229 522.5,405.5 Z"/></g>
<g><path style="opacity:0.333" fill="#949494" d="M 212.5,459.5 C 212.938,459.435 213.272,459.601 213.5,460C 212.155,462.899 210.488,465.399 208.5,467.5C 209.326,464.515 210.659,461.849 212.5,459.5 Z"/></g>
<g><path style="opacity:0.333" fill="#9e9e9e" d="M 208.5,468.5 C 209.043,468.56 209.376,468.893 209.5,469.5C 208.696,472.033 207.363,474.033 205.5,475.5C 206.264,472.982 207.264,470.649 208.5,468.5 Z"/></g>
<g><path style="opacity:0.333" fill="#a4a4a4" d="M 622.5,472.5 C 623.043,472.56 623.376,472.893 623.5,473.5C 622.696,476.033 621.363,478.033 619.5,479.5C 620.264,476.982 621.264,474.649 622.5,472.5 Z"/></g>
<g><path style="opacity:0.5" fill="#949494" d="M 205.5,476.5 C 206.043,476.56 206.376,476.893 206.5,477.5C 205.401,480.296 204.401,483.129 203.5,486C 203.164,487.03 202.497,487.53 201.5,487.5C 202.462,483.605 203.796,479.939 205.5,476.5 Z"/></g>
<g><path style="opacity:0.22" fill="#8b8b8b" d="M 255.5,484.5 C 255.672,485.492 255.338,486.158 254.5,486.5C 253.243,485.377 253.576,484.711 255.5,484.5 Z"/></g>
<g><path style="opacity:0.5" fill="#8e8e8e" d="M 570.5,491.5 C 571.338,491.842 571.672,492.508 571.5,493.5C 569.576,493.289 569.243,492.623 570.5,491.5 Z"/></g>
<g><path style="opacity:0.333" fill="#9f9f9f" d="M 619.5,480.5 C 620.043,480.56 620.376,480.893 620.5,481.5C 618.705,485.384 617.205,489.384 616,493.5C 615.451,495.76 614.284,497.426 612.5,498.5C 614.462,492.267 616.796,486.267 619.5,480.5 Z"/></g>
<g><path style="opacity:0.5" fill="#858585" d="M 201.5,489.5 C 202.043,489.56 202.376,489.893 202.5,490.5C 202.185,492.483 201.185,493.816 199.5,494.5C 199.796,492.597 200.463,490.93 201.5,489.5 Z"/></g>
<g><path style="opacity:0.5" fill="#919191" d="M 254.5,488.5 C 254.279,491.067 253.612,493.401 252.5,495.5C 251.903,495.265 251.57,494.765 251.5,494C 251.699,491.552 252.699,489.719 254.5,488.5 Z"/></g>
<g><path style="opacity:0.5" fill="#7a7a7a" d="M 199.5,496.5 C 200.757,497.623 200.424,498.289 198.5,498.5C 198.328,497.508 198.662,496.842 199.5,496.5 Z"/></g>
<g><path style="opacity:0.5" fill="#808080" d="M 513.5,496.5 C 515.302,497.315 516.302,498.815 516.5,501C 516.43,501.765 516.097,502.265 515.5,502.5C 514.542,500.698 513.875,498.698 513.5,496.5 Z"/></g>
<g><path style="opacity:0.5" fill="#9f9f9f" d="M 198.5,500.5 C 199.124,500.917 199.457,501.584 199.5,502.5C 198.769,505.653 198.103,508.819 197.5,512C 197.316,513.376 196.649,514.209 195.5,514.5C 196.01,509.609 197.01,504.942 198.5,500.5 Z"/></g>
<g><path style="opacity:0.333" fill="#9c9c9c" d="M 252.5,498.5 C 252.142,501.689 251.475,504.689 250.5,507.5C 249.387,506.054 249.22,504.387 250,502.5C 250.122,500.563 250.955,499.23 252.5,498.5 Z"/></g>
<g><path style="opacity:0.5" fill="#878787" d="M 515.5,504.5 C 517.424,504.711 517.757,505.377 516.5,506.5C 515.662,506.158 515.328,505.492 515.5,504.5 Z"/></g>
<g><path style="opacity:0.5" fill="#9d9d9d" d="M 573.5,503.5 C 574.99,507.942 575.99,512.609 576.5,517.5C 575.351,517.209 574.684,516.376 574.5,515C 573.897,511.819 573.231,508.653 572.5,505.5C 572.543,504.584 572.876,503.917 573.5,503.5 Z"/></g>
<g><path style="opacity:0.333" fill="#9e9e9e" d="M 608.5,510.5 C 609.043,510.56 609.376,510.893 609.5,511.5C 608.696,514.033 607.363,516.033 605.5,517.5C 606.264,514.982 607.264,512.649 608.5,510.5 Z"/></g>
<g><path style="opacity:0.333" fill="#7e7e7e" d="M 250.5,510.5 C 250.795,512.735 250.461,514.735 249.5,516.5C 248.853,515.726 248.52,514.726 248.5,513.5C 248.64,511.97 249.307,510.97 250.5,510.5 Z"/></g>
<g><path style="opacity:0.5" fill="#9a9a9a" d="M 195.5,517.5 C 196.124,517.917 196.457,518.584 196.5,519.5C 196.253,520.713 195.586,521.38 194.5,521.5C 194.232,519.901 194.566,518.568 195.5,517.5 Z"/></g>
<g><path style="opacity:0.333" fill="#a7a7a7" d="M 605.5,518.5 C 606.043,518.56 606.376,518.893 606.5,519.5C 605.548,523.088 603.881,526.088 601.5,528.5C 602.658,525.011 603.991,521.678 605.5,518.5 Z"/></g>
<g><path style="opacity:0.5" fill="#9a9a9a" d="M 576.5,521.5 C 577.434,522.568 577.768,523.901 577.5,525.5C 576.414,525.38 575.747,524.713 575.5,523.5C 575.543,522.584 575.876,521.917 576.5,521.5 Z"/></g>
<g><path style="opacity:0.5" fill="#959595" d="M 516.5,508.5 C 518.045,509.23 518.878,510.563 519,512.5C 519.887,517.658 520.721,522.825 521.5,528C 521.486,529.385 521.152,530.551 520.5,531.5C 519.079,523.978 517.745,516.312 516.5,508.5 Z"/></g>
<g><path style="opacity:0.5" fill="#696969" d="M 249.5,521.5 C 249.815,525.371 249.482,529.038 248.5,532.5C 247.839,530.866 247.506,529.033 247.5,527C 247.547,524.705 248.213,522.871 249.5,521.5 Z"/></g>
<g><path style="opacity:0.333" fill="#9a9a9a" d="M 601.5,529.5 C 602.043,529.56 602.376,529.893 602.5,530.5C 601.696,533.033 600.363,535.033 598.5,536.5C 599.264,533.982 600.264,531.649 601.5,529.5 Z"/></g>
<g><path style="opacity:0.5" fill="#a4a4a4" d="M 194.5,524.5 C 195.156,525.622 195.489,526.955 195.5,528.5C 195.415,530.333 194.748,531.666 193.5,532.5C 193.194,529.615 193.527,526.948 194.5,524.5 Z"/></g>
<g><path style="opacity:0.556" fill="#979797" d="M 577.5,530.5 C 578.473,532.948 578.806,535.615 578.5,538.5C 577.833,538.5 577.167,538.5 576.5,538.5C 576.194,535.615 576.527,532.948 577.5,530.5 Z"/></g>
<g><path style="opacity:0.5" fill="#767676" d="M 520.5,534.5 C 521.748,535.334 522.415,536.667 522.5,538.5C 522.489,540.045 522.156,541.378 521.5,542.5C 520.527,540.052 520.194,537.385 520.5,534.5 Z"/></g>
<g><path style="opacity:0.333" fill="#a3a3a3" d="M 598.5,537.5 C 599.043,537.56 599.376,537.893 599.5,538.5C 599.185,540.483 598.185,541.816 596.5,542.5C 596.796,540.597 597.463,538.93 598.5,537.5 Z"/></g>
<g><path style="opacity:0.5" fill="#6c6c6c" d="M 193.5,536.5 C 194.833,544.5 194.833,552.5 193.5,560.5C 192.167,552.5 192.167,544.5 193.5,536.5 Z"/></g>
<g><path style="opacity:0.467" fill="#cccccc" d="M 576.5,538.5 C 577.167,538.5 577.833,538.5 578.5,538.5C 578.5,546.167 578.5,553.833 578.5,561.5C 577.833,561.5 577.167,561.5 576.5,561.5C 576.5,553.833 576.5,546.167 576.5,538.5 Z"/></g>
<g><path style="opacity:0.5" fill="#979797" d="M 594.5,548.5 C 595.043,548.56 595.376,548.893 595.5,549.5C 594.696,552.033 593.363,554.033 591.5,555.5C 592.264,552.982 593.264,550.649 594.5,548.5 Z"/></g>
<g><path style="opacity:0.333" fill="#797979" d="M 248.5,544.5 C 249.479,547.625 249.813,550.958 249.5,554.5C 248.223,553.306 247.556,551.64 247.5,549.5C 247.507,547.631 247.84,545.964 248.5,544.5 Z"/></g>
<g><path style="opacity:0.333" fill="#9e9e9e" d="M 590.5,559.5 C 591.043,559.56 591.376,559.893 591.5,560.5C 590.696,563.033 589.363,565.033 587.5,566.5C 588.264,563.982 589.264,561.649 590.5,559.5 Z"/></g>
<g><path style="opacity:0.5" fill="#878787" d="M 249.5,561.5 C 250.434,562.568 250.768,563.901 250.5,565.5C 249.414,565.38 248.747,564.713 248.5,563.5C 248.543,562.584 248.876,561.917 249.5,561.5 Z"/></g>
<g><path style="opacity:0.556" fill="#bfbfbf" d="M 521.5,545.5 C 522.824,549.107 523.491,553.107 523.5,557.5C 523.491,561.893 522.824,565.893 521.5,569.5C 521.5,561.5 521.5,553.5 521.5,545.5 Z"/></g>
<g><path style="opacity:0.22" fill="#5e5e5e" d="M 576.5,561.5 C 577.167,561.5 577.833,561.5 578.5,561.5C 578.768,563.099 578.434,564.432 577.5,565.5C 576.566,564.432 576.232,563.099 576.5,561.5 Z"/></g>
<g><path style="opacity:0.667" fill="#acacac" d="M 193.5,564.5 C 195.176,565.183 195.843,566.517 195.5,568.5C 194.833,568.5 194.167,568.5 193.5,568.5C 193.5,567.167 193.5,565.833 193.5,564.5 Z"/></g>
<g><path style="opacity:0.5" fill="#676767" d="M 193.5,568.5 C 194.167,568.5 194.833,568.5 195.5,568.5C 195.5,570.167 195.5,571.833 195.5,573.5C 195.167,573.5 194.833,573.5 194.5,573.5C 193.549,572.081 193.216,570.415 193.5,568.5 Z"/></g>
<g><path style="opacity:0.5" fill="#818181" d="M 577.5,571.5 C 577.737,572.791 577.404,573.791 576.5,574.5C 575.115,573.053 575.448,572.053 577.5,571.5 Z"/></g>
<g><path style="opacity:0.5" fill="#a1a1a1" d="M 250.5,570.5 C 251.434,571.568 251.768,572.901 251.5,574.5C 250.414,574.38 249.747,573.713 249.5,572.5C 249.543,571.584 249.876,570.917 250.5,570.5 Z"/></g>
<g><path style="opacity:0.501" fill="#9f9f9f" d="M 521.5,573.5 C 522.404,574.209 522.737,575.209 522.5,576.5C 522.5,576.833 522.5,577.167 522.5,577.5C 431.833,577.5 341.167,577.5 250.5,577.5C 250.5,577.167 250.5,576.833 250.5,576.5C 251.167,576.5 251.5,576.167 251.5,575.5C 341.712,576.16 431.712,575.493 521.5,573.5 Z"/></g>
<g><path style="opacity:0.535" fill="#b3b3b3" d="M 587.5,567.5 C 587.974,570.152 587.307,572.819 585.5,575.5C 594.81,576.498 604.143,576.832 613.5,576.5C 613.5,576.833 613.5,577.167 613.5,577.5C 583.167,577.5 552.833,577.5 522.5,577.5C 522.5,577.167 522.5,576.833 522.5,576.5C 540.674,576.83 558.674,576.497 576.5,575.5C 579.247,575.813 581.914,575.48 584.5,574.5C 585.33,571.984 586.33,569.65 587.5,567.5 Z"/></g>
<g><path style="opacity:0.508" fill="#a0a0a0" d="M 672.5,380.5 C 697.889,444.3 723.056,508.3 748,572.5C 750.639,574.424 752.805,576.758 754.5,579.5C 754.167,579.5 753.833,579.5 753.5,579.5C 753.389,578.883 753.056,578.383 752.5,578C 706.168,577.5 659.835,577.333 613.5,577.5C 613.5,577.167 613.5,576.833 613.5,576.5C 626.171,539.498 639.671,502.832 654,466.5C 667.926,502.694 681.592,539.027 695,575.5C 712.423,576.492 729.923,576.825 747.5,576.5C 722.561,511.349 697.227,446.349 671.5,381.5C 672.167,381.5 672.5,381.167 672.5,380.5 Z M 653.5,469.5 C 640.844,504.465 628.177,539.465 615.5,574.5C 641.158,575.5 666.825,575.833 692.5,575.5C 680.02,539.893 667.02,504.559 653.5,469.5 Z"/></g>
<g><path style="opacity:0.998" fill="#c0c0c0" d="M 194.5,573.5 C 194.833,573.5 195.167,573.5 195.5,573.5C 195.804,574.15 196.137,574.817 196.5,575.5C 214.488,576.5 232.488,576.833 250.5,576.5C 250.5,576.833 250.5,577.167 250.5,577.5C 231.821,577.167 213.155,577.5 194.5,578.5C 194.863,579.183 195.196,579.85 195.5,580.5C 194.833,580.5 194.5,580.833 194.5,581.5C 193.661,580.359 192.994,579.026 192.5,577.5C 193.63,576.378 194.297,575.044 194.5,573.5 Z"/></g>
<g><path style="opacity:1" fill="#f8f8f8" d="M 250.5,577.5 C 341.167,577.5 431.833,577.5 522.5,577.5C 552.833,577.5 583.167,577.5 613.5,577.5C 659.835,577.333 706.168,577.5 752.5,578C 753.056,578.383 753.389,578.883 753.5,579.5C 567.667,580.5 381.667,580.833 195.5,580.5C 195.196,579.85 194.863,579.183 194.5,578.5C 213.155,577.5 231.821,577.167 250.5,577.5 Z"/></g>
<g><path style="opacity:0.5" fill="#626262" d="M 753.5,579.5 C 753.833,579.5 754.167,579.5 754.5,579.5C 755.774,580.189 755.774,581.023 754.5,582C 567.666,582.833 381,582.666 194.5,581.5C 194.5,580.833 194.833,580.5 195.5,580.5C 381.667,580.833 567.667,580.5 753.5,579.5 Z"/></g>
<g><path style="opacity:0.977" fill="#fafafa" d="M 557.5,601.5 C 555.74,606.089 554.407,610.923 553.5,616C 553.57,616.765 553.903,617.265 554.5,617.5C 554.5,618.167 554.5,618.833 554.5,619.5C 552.955,620.23 552.122,621.563 552,623.5C 551.294,627.364 550.461,631.197 549.5,635C 549.57,635.765 549.903,636.265 550.5,636.5C 550.5,637.167 550.5,637.833 550.5,638.5C 549.414,638.62 548.747,639.287 548.5,640.5C 547.082,647.931 545.415,655.264 543.5,662.5C 542.167,662.5 540.833,662.5 539.5,662.5C 539.663,660.143 539.497,657.81 539,655.5C 535.264,658.417 531.764,661.417 528.5,664.5C 526.5,664.5 524.5,664.5 522.5,664.5C 518.84,661.507 515.507,658.174 512.5,654.5C 512.5,653.167 512.5,651.833 512.5,650.5C 513.833,649.5 513.833,648.5 512.5,647.5C 512.342,644.098 512.676,640.764 513.5,637.5C 515.424,637.289 515.757,636.623 514.5,635.5C 514.5,635.167 514.5,634.833 514.5,634.5C 517.113,631.989 519.28,628.989 521,625.5C 529.659,617.209 537.826,617.542 545.5,626.5C 546.782,625.042 546.782,623.708 545.5,622.5C 545.5,621.833 545.5,621.167 545.5,620.5C 546.649,620.209 547.316,619.376 547.5,618C 548.503,615.654 548.503,613.487 547.5,611.5C 547.5,610.5 547.5,609.5 547.5,608.5C 548.497,608.53 549.164,608.03 549.5,607C 550.608,605.323 550.608,603.823 549.5,602.5C 550.492,600.974 551.992,600.307 554,600.5C 555.385,600.514 556.551,600.848 557.5,601.5 Z M 541.5,637.5 C 541.5,638.5 541.5,639.5 541.5,640.5C 539.713,644.075 537.879,647.741 536,651.5C 531.636,657.149 526.803,657.816 521.5,653.5C 521.5,652.833 521.5,652.167 521.5,651.5C 520.67,641.814 523.67,633.647 530.5,627C 539.694,624.509 543.361,628.009 541.5,637.5 Z"/></g>
<g><path style="opacity:0.333" fill="#8b8b8b" d="M 580.5,612.5 C 581.379,610.772 582.046,608.939 582.5,607C 582.667,604.5 581.5,603.333 579,603.5C 577.893,603.585 576.893,603.919 576,604.5C 575.398,607.221 575.565,609.887 576.5,612.5C 572.873,609.826 572.54,606.659 575.5,603C 579.997,600.373 582.997,601.539 584.5,606.5C 584.148,609.217 582.815,611.217 580.5,612.5 Z"/></g>
<g><path style="opacity:0.986" fill="#f7f7f7" d="M 580.5,612.5 C 579.167,612.5 577.833,612.5 576.5,612.5C 575.565,609.887 575.398,607.221 576,604.5C 576.893,603.919 577.893,603.585 579,603.5C 581.5,603.333 582.667,604.5 582.5,607C 582.046,608.939 581.379,610.772 580.5,612.5 Z"/></g>
<g><path style="opacity:0.981" fill="#fafafa" d="M 401.5,603.5 C 405.167,603.5 408.833,603.5 412.5,603.5C 412.47,604.497 412.97,605.164 414,605.5C 415.763,605.975 417.43,606.642 419,607.5C 419.399,607.272 419.565,606.938 419.5,606.5C 420.5,606.833 421.167,607.5 421.5,608.5C 419.801,609.511 418.301,610.845 417,612.5C 414.103,610.88 411.269,610.547 408.5,611.5C 407.167,611.5 405.833,611.5 404.5,611.5C 399.917,610.729 396.75,612.729 395,617.5C 393.837,622.345 395.337,626.179 399.5,629C 404.1,631.215 408.266,634.048 412,637.5C 413.67,641.482 414.837,645.482 415.5,649.5C 415.5,650.167 415.5,650.833 415.5,651.5C 413.269,653.076 411.603,655.243 410.5,658C 406.856,659.969 403.523,662.136 400.5,664.5C 396.167,664.5 391.833,664.5 387.5,664.5C 386.216,662.386 384.216,661.386 381.5,661.5C 381.201,659.396 381.534,657.396 382.5,655.5C 385.205,657.201 387.872,657.534 390.5,656.5C 392.833,656.5 395.167,656.5 397.5,656.5C 405.167,656.648 408.667,652.648 408,644.5C 406.542,642.04 404.709,639.873 402.5,638C 397.884,635.44 393.718,632.273 390,628.5C 388,623.167 388,617.833 390,612.5C 393.529,608.854 397.362,605.854 401.5,603.5 Z"/></g>
<g><path style="opacity:0.333" fill="#999999" d="M 412.5,603.5 C 415.157,603.935 417.491,604.935 419.5,606.5C 419.565,606.938 419.399,607.272 419,607.5C 417.43,606.642 415.763,605.975 414,605.5C 412.97,605.164 412.47,604.497 412.5,603.5 Z"/></g>
<g><path style="opacity:0.333" fill="#9f9f9f" d="M 557.5,601.5 C 558.043,601.56 558.376,601.893 558.5,602.5C 557.404,607.681 556.071,612.681 554.5,617.5C 553.903,617.265 553.57,616.765 553.5,616C 554.407,610.923 555.74,606.089 557.5,601.5 Z"/></g>
<g><path style="opacity:0.333" fill="#818181" d="M 549.5,602.5 C 550.608,603.823 550.608,605.323 549.5,607C 549.164,608.03 548.497,608.53 547.5,608.5C 547.875,606.302 548.542,604.302 549.5,602.5 Z"/></g>
<g><path style="opacity:0.936" fill="#f8f8f8" d="M 442.5,608.5 C 444.973,608.088 446.306,609.088 446.5,611.5C 444.595,612.464 443.595,614.131 443.5,616.5C 443.747,617.713 444.414,618.38 445.5,618.5C 448.518,618.335 451.518,618.502 454.5,619C 455.683,621.155 455.35,623.155 453.5,625C 450.183,625.498 446.85,625.665 443.5,625.5C 442.069,625.881 441.236,626.881 441,628.5C 439.564,635.847 438.064,643.18 436.5,650.5C 436.543,651.416 436.876,652.083 437.5,652.5C 437.5,653.167 437.5,653.833 437.5,654.5C 436.733,656.939 437.9,658.272 441,658.5C 442.376,658.316 443.209,657.649 443.5,656.5C 445.099,656.232 446.432,656.566 447.5,657.5C 446.167,658.833 446.167,660.167 447.5,661.5C 447.047,662.458 446.381,663.292 445.5,664C 442.518,664.498 439.518,664.665 436.5,664.5C 435.618,662.616 434.118,661.283 432,660.5C 431.004,657.091 430.171,653.758 429.5,650.5C 429.5,649.167 429.5,647.833 429.5,646.5C 430.497,646.53 431.164,646.03 431.5,645C 432.608,643.323 432.608,641.823 431.5,640.5C 431.5,639.5 431.5,638.5 431.5,637.5C 432.497,637.53 433.164,637.03 433.5,636C 434.23,633.184 434.897,630.35 435.5,627.5C 435.253,626.287 434.586,625.62 433.5,625.5C 431.585,625.784 429.919,625.451 428.5,624.5C 429.64,622.955 430.64,621.288 431.5,619.5C 431.833,619.5 432.167,619.5 432.5,619.5C 432.435,619.938 432.601,620.272 433,620.5C 434.333,619.833 435.667,619.167 437,618.5C 438.592,614.979 440.425,611.646 442.5,608.5 Z"/></g>
<g><path style="opacity:0.331" fill="#a1a1a1" d="M 421.5,608.5 C 421.205,611.43 419.705,613.43 417,614.5C 414.112,613.306 411.278,612.306 408.5,611.5C 411.269,610.547 414.103,610.88 417,612.5C 418.301,610.845 419.801,609.511 421.5,608.5 Z"/></g>
<g><path style="opacity:0.5" fill="#a7a7a7" d="M 547.5,611.5 C 548.503,613.487 548.503,615.654 547.5,618C 547.316,619.376 546.649,620.209 545.5,620.5C 545.676,617.273 546.343,614.273 547.5,611.5 Z"/></g>
<g><path style="opacity:0.333" fill="#979797" d="M 446.5,611.5 C 445.781,613.764 445.448,616.097 445.5,618.5C 444.414,618.38 443.747,617.713 443.5,616.5C 443.595,614.131 444.595,612.464 446.5,611.5 Z"/></g>
<g><path style="opacity:0.443" fill="#9a9a9a" d="M 442.5,608.5 C 440.425,611.646 438.592,614.979 437,618.5C 435.667,619.167 434.333,619.833 433,620.5C 432.601,620.272 432.435,619.938 432.5,619.5C 436.17,617.21 438.67,613.876 440,609.5C 440.671,608.748 441.504,608.414 442.5,608.5 Z"/></g>
<g><path style="opacity:0.484" fill="#9d9d9d" d="M 569.5,663.5 C 572.896,649.018 576.23,634.518 579.5,620C 576.779,619.398 574.113,619.565 571.5,620.5C 571.874,618.05 573.374,617.05 576,617.5C 579.252,616.92 580.752,618.253 580.5,621.5C 577.731,635.179 574.897,648.846 572,662.5C 571.329,663.252 570.496,663.586 569.5,663.5 Z"/></g>
<g><path style="opacity:0.467" fill="#8d8d8d" d="M 616.5,618.5 C 614.167,619.833 611.833,619.833 609.5,618.5C 611.833,617.167 614.167,617.167 616.5,618.5 Z"/></g>
<g><path style="opacity:0.97" fill="#f7f7f7" d="M 475.5,619.5 C 474.199,622.791 473.199,626.291 472.5,630C 472.57,630.765 472.903,631.265 473.5,631.5C 473.5,632.5 473.5,633.5 473.5,634.5C 472.069,634.881 471.236,635.881 471,637.5C 470.627,639.698 470.127,641.865 469.5,644C 469.57,644.765 469.903,645.265 470.5,645.5C 470.5,646.5 470.5,647.5 470.5,648.5C 467.049,653.464 468.382,656.797 474.5,658.5C 481.714,656.937 486.047,652.937 487.5,646.5C 487.5,646.167 487.5,645.833 487.5,645.5C 489.185,644.816 490.185,643.483 490.5,641.5C 490.376,640.893 490.043,640.56 489.5,640.5C 490.038,636.476 490.705,632.476 491.5,628.5C 492.931,628.119 493.764,627.119 494,625.5C 494.765,623.934 494.598,622.601 493.5,621.5C 493.874,619.05 495.374,618.05 498,618.5C 500.626,618.05 502.126,619.05 502.5,621.5C 501.503,621.47 500.836,621.97 500.5,623C 499.392,624.677 499.392,626.177 500.5,627.5C 500.5,628.167 500.5,628.833 500.5,629.5C 498.955,630.23 498.122,631.563 498,633.5C 496.961,639.03 495.794,644.53 494.5,650C 494.57,650.765 494.903,651.265 495.5,651.5C 495.5,652.5 495.5,653.5 495.5,654.5C 493.023,656.416 492.023,659.083 492.5,662.5C 490.833,662.5 489.167,662.5 487.5,662.5C 487.628,660.345 487.128,658.345 486,656.5C 482.784,659.322 479.617,661.989 476.5,664.5C 474.167,664.5 471.833,664.5 469.5,664.5C 468.098,662.517 466.264,660.851 464,659.5C 463.115,656.048 462.282,652.714 461.5,649.5C 461.5,648.167 461.5,646.833 461.5,645.5C 462.497,645.53 463.164,645.03 463.5,644C 464.608,642.323 464.608,640.823 463.5,639.5C 463.5,638.5 463.5,637.5 463.5,636.5C 464.931,636.119 465.764,635.119 466,633.5C 466.765,631.934 466.598,630.601 465.5,629.5C 465.5,628.5 465.5,627.5 465.5,626.5C 466.497,626.53 467.164,626.03 467.5,625C 468.608,623.323 468.608,621.823 467.5,620.5C 468.492,618.974 469.992,618.307 472,618.5C 473.385,618.514 474.551,618.848 475.5,619.5 Z"/></g>
<g><path style="opacity:0.984" fill="#fbfbfb" d="M 662.5,617.5 C 664.547,619.343 667.047,620.676 670,621.5C 669.981,623.107 669.815,624.774 669.5,626.5C 669.5,627.167 669.167,627.5 668.5,627.5C 667.152,625.52 665.152,624.353 662.5,624C 659.961,623.204 657.628,623.371 655.5,624.5C 650.922,625.843 649.422,628.843 651,633.5C 655.333,636.5 659.667,639.5 664,642.5C 666.909,647.275 667.243,652.275 665,657.5C 661.98,660.291 658.814,662.624 655.5,664.5C 652.167,664.5 648.833,664.5 645.5,664.5C 644.144,662.73 642.311,661.397 640,660.5C 639.202,658.741 639.369,657.074 640.5,655.5C 647.358,659.823 653.858,659.49 660,654.5C 660.692,653.563 660.525,652.897 659.5,652.5C 659.5,651.5 659.5,650.5 659.5,649.5C 660.043,649.44 660.376,649.107 660.5,648.5C 659.687,647.186 658.687,646.019 657.5,645C 649.149,641.845 644.483,636.011 643.5,627.5C 643.5,627.167 643.5,626.833 643.5,626.5C 646.5,624.167 649.167,621.5 651.5,618.5C 655.064,617.577 658.731,617.244 662.5,617.5 Z"/></g>
<g><path style="opacity:0.443" fill="#989898" d="M 545.5,622.5 C 546.782,623.708 546.782,625.042 545.5,626.5C 537.826,617.542 529.659,617.209 521,625.5C 519.28,628.989 517.113,631.989 514.5,634.5C 518.011,623.087 525.677,617.587 537.5,618C 540.309,619.323 542.975,620.823 545.5,622.5 Z"/></g>
<g><path style="opacity:0.968" fill="#fbfbfb" d="M 569.5,663.5 C 567.265,663.795 565.265,663.461 563.5,662.5C 565.529,656.394 567.196,650.061 568.5,643.5C 568.457,642.584 568.124,641.917 567.5,641.5C 567.5,640.5 567.5,639.5 567.5,638.5C 568.931,638.119 569.764,637.119 570,635.5C 570.765,633.934 570.598,632.601 569.5,631.5C 569.5,630.5 569.5,629.5 569.5,628.5C 570.497,628.53 571.164,628.03 571.5,627C 572.608,625.323 572.608,623.823 571.5,622.5C 571.5,621.833 571.5,621.167 571.5,620.5C 574.113,619.565 576.779,619.398 579.5,620C 576.23,634.518 572.896,649.018 569.5,663.5 Z"/></g>
<g><path style="opacity:0.443" fill="#919191" d="M 607.5,618.5 C 604.9,620.915 602.066,623.249 599,625.5C 596.866,627.803 595.366,630.469 594.5,633.5C 594.043,634.298 593.376,634.631 592.5,634.5C 594.784,626.585 599.784,621.252 607.5,618.5 Z"/></g>
<g><path style="opacity:0.984" fill="#fbfbfb" d="M 607.5,618.5 C 608.167,618.5 608.833,618.5 609.5,618.5C 611.833,619.833 614.167,619.833 616.5,618.5C 617.167,618.5 617.833,618.5 618.5,618.5C 626.344,623.675 630.011,631.008 629.5,640.5C 629.5,641.5 629.5,642.5 629.5,643.5C 627.083,647.142 624.917,651.142 623,655.5C 619.218,658.808 615.384,661.808 611.5,664.5C 608.833,664.5 606.167,664.5 603.5,664.5C 600.023,662.468 596.857,659.801 594,656.5C 592.978,650.731 592.145,645.064 591.5,639.5C 591.5,638.833 591.5,638.167 591.5,637.5C 593.424,637.289 593.757,636.623 592.5,635.5C 592.5,635.167 592.5,634.833 592.5,634.5C 593.376,634.631 594.043,634.298 594.5,633.5C 595.366,630.469 596.866,627.803 599,625.5C 602.066,623.249 604.9,620.915 607.5,618.5 Z M 620.5,640.5 C 620.5,641.5 620.5,642.5 620.5,643.5C 619.463,644.93 618.796,646.597 618.5,648.5C 618.5,648.833 618.5,649.167 618.5,649.5C 614.85,656.156 609.517,657.989 602.5,655C 601.219,653.591 600.219,652.091 599.5,650.5C 599.5,647.833 599.5,645.167 599.5,642.5C 600.472,638.432 601.972,634.432 604,630.5C 608.547,626.107 613.547,625.44 619,628.5C 620.354,632.363 620.854,636.363 620.5,640.5 Z"/></g>
<g><path style="opacity:0.22" fill="#999999" d="M 662.5,617.5 C 665.899,617.807 669.066,618.807 672,620.5C 672.542,623.082 671.708,625.082 669.5,626.5C 669.815,624.774 669.981,623.107 670,621.5C 667.047,620.676 664.547,619.343 662.5,617.5 Z"/></g>
<g><path style="opacity:0.22" fill="#787878" d="M 431.5,619.5 C 430.64,621.288 429.64,622.955 428.5,624.5C 427.535,623.279 427.702,621.946 429,620.5C 429.671,619.748 430.504,619.414 431.5,619.5 Z"/></g>
<g><path style="opacity:0.667" fill="#b2b2b2" d="M 651.5,618.5 C 649.167,621.5 646.5,624.167 643.5,626.5C 645.167,622.833 647.833,620.167 651.5,618.5 Z"/></g>
<g><path style="opacity:0.5" fill="#bababa" d="M 668.5,627.5 C 664.326,625.936 659.993,625.269 655.5,625.5C 655.5,625.167 655.5,624.833 655.5,624.5C 657.628,623.371 659.961,623.204 662.5,624C 665.152,624.353 667.152,625.52 668.5,627.5 Z"/></g>
<g><path style="opacity:0.5" fill="#a4a4a4" d="M 493.5,621.5 C 494.598,622.601 494.765,623.934 494,625.5C 493.764,627.119 492.931,628.119 491.5,628.5C 491.927,625.99 492.593,623.657 493.5,621.5 Z"/></g>
<g><path style="opacity:0.5" fill="#a7a7a7" d="M 554.5,619.5 C 553.658,625.398 552.324,631.065 550.5,636.5C 549.903,636.265 549.57,635.765 549.5,635C 550.461,631.197 551.294,627.364 552,623.5C 552.122,621.563 552.955,620.23 554.5,619.5 Z"/></g>
<g><path style="opacity:0.333" fill="#7e7e7e" d="M 467.5,620.5 C 468.608,621.823 468.608,623.323 467.5,625C 467.164,626.03 466.497,626.53 465.5,626.5C 465.875,624.302 466.542,622.302 467.5,620.5 Z"/></g>
<g><path style="opacity:0.333" fill="#969696" d="M 502.5,621.5 C 502.125,623.698 501.458,625.698 500.5,627.5C 499.392,626.177 499.392,624.677 500.5,623C 500.836,621.97 501.503,621.47 502.5,621.5 Z"/></g>
<g><path style="opacity:0.333" fill="#999999" d="M 541.5,637.5 C 543.361,628.009 539.694,624.509 530.5,627C 523.67,633.647 520.67,641.814 521.5,651.5C 519.136,642.666 521.136,634.499 527.5,627C 531.833,624.504 536.166,624.171 540.5,626C 543.756,629.859 544.09,633.692 541.5,637.5 Z"/></g>
<g><path style="opacity:0.333" fill="#a9a9a9" d="M 401.5,603.5 C 397.362,605.854 393.529,608.854 390,612.5C 388,617.833 388,623.167 390,628.5C 393.718,632.273 397.884,635.44 402.5,638C 404.709,639.873 406.542,642.04 408,644.5C 408.667,652.648 405.167,656.648 397.5,656.5C 404.361,655.459 407.194,651.459 406,644.5C 403.26,640.042 399.427,636.875 394.5,635C 386.185,628.71 384.352,620.877 389,611.5C 392.325,607.426 396.491,604.76 401.5,603.5 Z"/></g>
<g><path style="opacity:0.333" fill="#818181" d="M 571.5,622.5 C 572.608,623.823 572.608,625.323 571.5,627C 571.164,628.03 570.497,628.53 569.5,628.5C 569.875,626.302 570.542,624.302 571.5,622.5 Z"/></g>
<g><path style="opacity:0.5" fill="#a8a8a8" d="M 433.5,625.5 C 434.586,625.62 435.253,626.287 435.5,627.5C 434.897,630.35 434.23,633.184 433.5,636C 433.164,637.03 432.497,637.53 431.5,637.5C 432.552,633.574 433.218,629.574 433.5,625.5 Z"/></g>
<g><path style="opacity:0.443" fill="#999999" d="M 404.5,611.5 C 397.442,612.926 394.942,617.26 397,624.5C 402.333,628.5 407.667,632.5 413,636.5C 415.91,640.648 416.743,644.982 415.5,649.5C 414.837,645.482 413.67,641.482 412,637.5C 408.266,634.048 404.1,631.215 399.5,629C 395.337,626.179 393.837,622.345 395,617.5C 396.75,612.729 399.917,610.729 404.5,611.5 Z"/></g>
<g><path style="opacity:0.5" fill="#9c9c9c" d="M 443.5,625.5 C 441.736,634.667 439.736,643.667 437.5,652.5C 436.876,652.083 436.543,651.416 436.5,650.5C 438.064,643.18 439.564,635.847 441,628.5C 441.236,626.881 442.069,625.881 443.5,625.5 Z"/></g>
<g><path style="opacity:0.5" fill="#9b9b9b" d="M 475.5,619.5 C 476.097,619.735 476.43,620.235 476.5,621C 475.801,624.709 474.801,628.209 473.5,631.5C 472.903,631.265 472.57,630.765 472.5,630C 473.199,626.291 474.199,622.791 475.5,619.5 Z"/></g>
<g><path style="opacity:0.5" fill="#a8a8a8" d="M 465.5,629.5 C 466.598,630.601 466.765,631.934 466,633.5C 465.764,635.119 464.931,636.119 463.5,636.5C 463.927,633.99 464.593,631.657 465.5,629.5 Z"/></g>
<g><path style="opacity:0.22" fill="#9e9e9e" d="M 620.5,640.5 C 620.854,636.363 620.354,632.363 619,628.5C 613.547,625.44 608.547,626.107 604,630.5C 601.972,634.432 600.472,638.432 599.5,642.5C 598.402,641.399 598.235,640.066 599,638.5C 601.185,627.924 607.352,623.424 617.5,625C 622.612,629.642 623.612,634.809 620.5,640.5 Z"/></g>
<g><path style="opacity:0.5" fill="#a3a3a3" d="M 500.5,629.5 C 499.324,637.063 497.657,644.396 495.5,651.5C 494.903,651.265 494.57,650.765 494.5,650C 495.794,644.53 496.961,639.03 498,633.5C 498.122,631.563 498.955,630.23 500.5,629.5 Z"/></g>
<g><path style="opacity:0.5" fill="#a5a5a5" d="M 569.5,631.5 C 570.598,632.601 570.765,633.934 570,635.5C 569.764,637.119 568.931,638.119 567.5,638.5C 567.927,635.99 568.593,633.657 569.5,631.5 Z"/></g>
<g><path style="opacity:0.444" fill="#909090" d="M 618.5,618.5 C 628.273,622.837 631.94,630.17 629.5,640.5C 630.011,631.008 626.344,623.675 618.5,618.5 Z"/></g>
<g><path style="opacity:0.443" fill="#a1a1a1" d="M 655.5,624.5 C 655.5,624.833 655.5,625.167 655.5,625.5C 652.67,627.362 651.837,630.029 653,633.5C 657.682,636.007 662.015,639.007 666,642.5C 671.383,654.068 667.883,661.401 655.5,664.5C 658.814,662.624 661.98,660.291 665,657.5C 667.243,652.275 666.909,647.275 664,642.5C 659.667,639.5 655.333,636.5 651,633.5C 649.422,628.843 650.922,625.843 655.5,624.5 Z"/></g>
<g><path style="opacity:0.5" fill="#909090" d="M 514.5,635.5 C 515.757,636.623 515.424,637.289 513.5,637.5C 513.328,636.508 513.662,635.842 514.5,635.5 Z"/></g>
<g><path style="opacity:0.667" fill="#929292" d="M 592.5,635.5 C 593.757,636.623 593.424,637.289 591.5,637.5C 591.328,636.508 591.662,635.842 592.5,635.5 Z"/></g>
<g><path style="opacity:0.333" fill="#a3a3a3" d="M 643.5,627.5 C 644.483,636.011 649.149,641.845 657.5,645C 658.687,646.019 659.687,647.186 660.5,648.5C 660.376,649.107 660.043,649.44 659.5,649.5C 654.256,645.437 649.089,641.104 644,636.5C 642.466,633.405 642.299,630.405 643.5,627.5 Z"/></g>
<g><path style="opacity:0.333" fill="#9c9c9c" d="M 473.5,634.5 C 472.866,638.373 471.866,642.039 470.5,645.5C 469.903,645.265 469.57,644.765 469.5,644C 470.127,641.865 470.627,639.698 471,637.5C 471.236,635.881 472.069,634.881 473.5,634.5 Z"/></g>
<g><path style="opacity:0.5" fill="#8a8a8a" d="M 463.5,639.5 C 464.608,640.823 464.608,642.323 463.5,644C 463.164,645.03 462.497,645.53 461.5,645.5C 461.875,643.302 462.542,641.302 463.5,639.5 Z"/></g>
<g><path style="opacity:0.333" fill="#8a8a8a" d="M 489.5,640.5 C 490.043,640.56 490.376,640.893 490.5,641.5C 490.185,643.483 489.185,644.816 487.5,645.5C 487.796,643.597 488.463,641.93 489.5,640.5 Z"/></g>
<g><path style="opacity:0.5" fill="#a9a9a9" d="M 567.5,641.5 C 568.124,641.917 568.457,642.584 568.5,643.5C 567.196,650.061 565.529,656.394 563.5,662.5C 562.957,662.44 562.624,662.107 562.5,661.5C 563.93,654.655 565.597,647.988 567.5,641.5 Z"/></g>
<g><path style="opacity:0.333" fill="#7e7e7e" d="M 431.5,640.5 C 432.608,641.823 432.608,643.323 431.5,645C 431.164,646.03 430.497,646.53 429.5,646.5C 429.875,644.302 430.542,642.302 431.5,640.5 Z"/></g>
<g><path style="opacity:0.258" fill="#5a5a5a" d="M 512.5,647.5 C 513.833,648.5 513.833,649.5 512.5,650.5C 511.167,649.5 511.167,648.5 512.5,647.5 Z"/></g>
<g><path style="opacity:0.333" fill="#9a9a9a" d="M 620.5,643.5 C 621.515,644.46 621.515,645.627 620.5,647C 620.164,648.03 619.497,648.53 618.5,648.5C 618.796,646.597 619.463,644.93 620.5,643.5 Z"/></g>
<g><path style="opacity:0.22" fill="#9d9d9d" d="M 629.5,643.5 C 627.78,654.216 621.78,661.216 611.5,664.5C 615.384,661.808 619.218,658.808 623,655.5C 624.917,651.142 627.083,647.142 629.5,643.5 Z"/></g>
<g><path style="opacity:0.444" fill="#939393" d="M 429.5,650.5 C 430.171,653.758 431.004,657.091 432,660.5C 434.118,661.283 435.618,662.616 436.5,664.5C 429.583,662.067 427.25,657.4 429.5,650.5 Z"/></g>
<g><path style="opacity:0.22" fill="#919191" d="M 415.5,651.5 C 412.805,658.368 407.805,662.701 400.5,664.5C 403.523,662.136 406.856,659.969 410.5,658C 411.603,655.243 413.269,653.076 415.5,651.5 Z"/></g>
<g><path style="opacity:0.667" fill="#9c9c9c" d="M 487.5,646.5 C 486.047,652.937 481.714,656.937 474.5,658.5C 468.382,656.797 467.049,653.464 470.5,648.5C 470.188,657.066 473.854,658.899 481.5,654C 484.121,651.886 486.121,649.386 487.5,646.5 Z"/></g>
<g><path style="opacity:0.667" fill="#a5a5a5" d="M 541.5,640.5 C 541.228,646.54 538.561,651.707 533.5,656C 528.332,659.829 523.999,659.163 520.5,654C 520.728,653.601 521.062,653.435 521.5,653.5C 526.803,657.816 531.636,657.149 536,651.5C 537.879,647.741 539.713,644.075 541.5,640.5 Z"/></g>
<g><path style="opacity:0.333" fill="#a3a3a3" d="M 659.5,652.5 C 660.525,652.897 660.692,653.563 660,654.5C 653.858,659.49 647.358,659.823 640.5,655.5C 639.369,657.074 639.202,658.741 640,660.5C 642.311,661.397 644.144,662.73 645.5,664.5C 638.074,664.257 635.741,660.757 638.5,654C 642.29,655.306 646.29,656.139 650.5,656.5C 654.46,657.015 657.46,655.682 659.5,652.5 Z"/></g>
<g><path style="opacity:0.5" fill="#a0a0a0" d="M 437.5,654.5 C 439.114,656.075 441.114,656.741 443.5,656.5C 443.209,657.649 442.376,658.316 441,658.5C 437.9,658.272 436.733,656.939 437.5,654.5 Z"/></g>
<g><path style="opacity:0.444" fill="#a3a3a3" d="M 618.5,649.5 C 617.338,654.459 613.838,657.459 608,658.5C 603.278,658.278 600.111,655.945 598.5,651.5C 598.624,650.893 598.957,650.56 599.5,650.5C 600.219,652.091 601.219,653.591 602.5,655C 609.517,657.989 614.85,656.156 618.5,649.5 Z"/></g>
<g><path style="opacity:0.499" fill="#505050" d="M 447.5,657.5 C 448.833,658.833 448.833,660.167 447.5,661.5C 446.167,660.167 446.167,658.833 447.5,657.5 Z"/></g>
<g><path style="opacity:0.333" fill="#9f9f9f" d="M 550.5,638.5 C 549.245,647.131 547.245,655.464 544.5,663.5C 544.5,662.833 544.167,662.5 543.5,662.5C 545.415,655.264 547.082,647.931 548.5,640.5C 548.747,639.287 549.414,638.62 550.5,638.5 Z"/></g>
<g><path style="opacity:0.333" fill="#929292" d="M 461.5,649.5 C 462.282,652.714 463.115,656.048 464,659.5C 466.264,660.851 468.098,662.517 469.5,664.5C 462.315,661.792 459.648,656.792 461.5,649.5 Z"/></g>
<g><path style="opacity:0.5" fill="#b8b8b8" d="M 512.5,654.5 C 515.507,658.174 518.84,661.507 522.5,664.5C 517.5,662.833 514.167,659.5 512.5,654.5 Z"/></g>
<g><path style="opacity:0.333" fill="#bbbbbb" d="M 591.5,639.5 C 592.145,645.064 592.978,650.731 594,656.5C 596.857,659.801 600.023,662.468 603.5,664.5C 591.842,659.865 587.842,651.532 591.5,639.5 Z"/></g>
<g><path style="opacity:0.443" fill="#b5b5b5" d="M 390.5,656.5 C 387.872,657.534 385.205,657.201 382.5,655.5C 381.534,657.396 381.201,659.396 381.5,661.5C 384.216,661.386 386.216,662.386 387.5,664.5C 380.565,664.406 378.065,661.073 380,654.5C 380.561,653.978 381.228,653.645 382,653.5C 384.888,654.694 387.722,655.694 390.5,656.5 Z"/></g>
<g><path style="opacity:0.524" fill="#828282" d="M 495.5,654.5 C 495.063,657.859 494.063,661.026 492.5,664C 487.899,665.683 485.399,664.183 485,659.5C 482.522,661.82 479.689,663.486 476.5,664.5C 479.617,661.989 482.784,659.322 486,656.5C 487.128,658.345 487.628,660.345 487.5,662.5C 489.167,662.5 490.833,662.5 492.5,662.5C 492.023,659.083 493.023,656.416 495.5,654.5 Z"/></g>
<g><path style="opacity:0.556" fill="#797979" d="M 543.5,662.5 C 544.167,662.5 544.5,662.833 544.5,663.5C 540.144,665.688 537.644,664.354 537,659.5C 534.522,661.82 531.689,663.486 528.5,664.5C 531.764,661.417 535.264,658.417 539,655.5C 539.497,657.81 539.663,660.143 539.5,662.5C 540.833,662.5 542.167,662.5 543.5,662.5 Z"/></g>
<g><path style="opacity:0.5" fill="#626262" d="M 793.5,692.5 C 792.833,692.5 792.167,692.5 791.5,692.5C 610.833,691.833 430.167,691.167 249.5,690.5C 430,689.334 610.666,689.167 791.5,690C 792.381,690.708 793.047,691.542 793.5,692.5 Z"/></g>
<g><path style="opacity:1" fill="#f8f8f8" d="M 249.5,690.5 C 430.167,691.167 610.833,691.833 791.5,692.5C 791.833,693.167 792.167,693.833 792.5,694.5C 611.833,694.5 431.167,694.5 250.5,694.5C 249.833,694.5 249.167,694.5 248.5,694.5C 248.232,692.901 248.566,691.568 249.5,690.5 Z"/></g>
<g><path style="opacity:0.333" fill="#9c9c9c" d="M 791.5,692.5 C 792.167,692.5 792.833,692.5 793.5,692.5C 794.833,695.833 796.167,699.167 797.5,702.5C 796.624,702.631 795.957,702.298 795.5,701.5C 794.864,699.22 793.864,697.22 792.5,695.5C 792.5,695.167 792.5,694.833 792.5,694.5C 792.167,693.833 791.833,693.167 791.5,692.5 Z"/></g>
<g><path style="opacity:0.501" fill="#c8c8c8" d="M 250.5,694.5 C 431.167,694.5 611.833,694.5 792.5,694.5C 792.5,694.833 792.5,695.167 792.5,695.5C 774.83,695.333 757.164,695.5 739.5,696C 740.056,696.383 740.389,696.883 740.5,697.5C 739.833,697.5 739.167,697.5 738.5,697.5C 683.167,696.167 627.833,696.167 572.5,697.5C 571.833,697.5 571.167,697.5 570.5,697.5C 570.611,696.883 570.944,696.383 571.5,696C 561.483,695.168 551.483,695.334 541.5,696.5C 540.206,698.88 539.206,701.38 538.5,704C 538.164,705.03 537.497,705.53 536.5,705.5C 537.1,702.702 538.1,700.035 539.5,697.5C 532.532,696.503 525.532,696.17 518.5,696.5C 518.5,695.833 518.167,695.5 517.5,695.5C 500.83,695.333 484.163,695.5 467.5,696C 465.559,698.454 463.225,700.287 460.5,701.5C 460.167,701.5 459.833,701.5 459.5,701.5C 461.27,700.236 462.937,698.736 464.5,697C 414.168,696.5 363.834,696.333 313.5,696.5C 312.791,695.596 311.791,695.263 310.5,695.5C 290.833,695.5 271.167,695.5 251.5,695.5C 250.833,695.5 250.5,695.167 250.5,694.5 Z"/></g>
<g><path style="opacity:0.996" fill="#f7f7f7" d="M 251.5,695.5 C 271.167,695.5 290.833,695.5 310.5,695.5C 326.454,711.246 345.454,720.246 367.5,722.5C 368.5,722.5 369.5,722.5 370.5,722.5C 370.62,723.586 371.287,724.253 372.5,724.5C 373.416,724.457 374.083,724.124 374.5,723.5C 375.5,723.5 376.5,723.5 377.5,723.5C 380.938,724.823 384.771,725.49 389,725.5C 393.229,725.49 397.062,724.823 400.5,723.5C 401.5,723.5 402.5,723.5 403.5,723.5C 404.274,724.147 405.274,724.48 406.5,724.5C 408.03,724.36 409.03,723.693 409.5,722.5C 413.112,721.578 416.779,720.911 420.5,720.5C 421.623,721.757 422.289,721.424 422.5,719.5C 423.167,719.5 423.833,719.5 424.5,719.5C 424.56,720.043 424.893,720.376 425.5,720.5C 429.982,719.035 433.982,717.035 437.5,714.5C 437.833,714.5 438.167,714.5 438.5,714.5C 438.435,714.938 438.601,715.272 439,715.5C 446.829,711.68 453.996,707.014 460.5,701.5C 463.225,700.287 465.559,698.454 467.5,696C 484.163,695.5 500.83,695.333 517.5,695.5C 515.42,697.573 513.754,699.907 512.5,702.5C 511.5,703.167 510.5,703.833 509.5,704.5C 509.565,704.062 509.399,703.728 509,703.5C 507.457,705.378 505.624,706.878 503.5,708C 501.859,709.129 500.859,710.629 500.5,712.5C 499.833,712.833 499.167,713.167 498.5,713.5C 482.367,724.477 464.534,733.144 445,739.5C 443.97,739.836 443.47,740.503 443.5,741.5C 442.833,741.5 442.167,741.5 441.5,741.5C 441.265,740.903 440.765,740.57 440,740.5C 436.04,741.657 432.04,742.657 428,743.5C 426.624,743.684 425.791,744.351 425.5,745.5C 422.545,746.159 419.545,746.492 416.5,746.5C 415.903,745.861 415.07,745.528 414,745.5C 412.624,745.684 411.791,746.351 411.5,747.5C 409.833,747.5 408.167,747.5 406.5,747.5C 404.527,746.837 402.361,746.504 400,746.5C 397.39,746.533 395.223,747.2 393.5,748.5C 387.5,748.5 381.5,748.5 375.5,748.5C 375.611,747.883 375.944,747.383 376.5,747C 372.642,746.19 368.976,746.357 365.5,747.5C 364.5,747.5 363.5,747.5 362.5,747.5C 362.03,746.307 361.03,745.64 359.5,745.5C 358.274,745.52 357.274,745.853 356.5,746.5C 354.833,746.5 353.167,746.5 351.5,746.5C 351.289,744.576 350.623,744.243 349.5,745.5C 348.5,745.5 347.5,745.5 346.5,745.5C 346.38,744.414 345.713,743.747 344.5,743.5C 343.584,743.543 342.917,743.876 342.5,744.5C 341.5,744.5 340.5,744.5 339.5,744.5C 339.289,742.576 338.623,742.243 337.5,743.5C 336.833,743.5 336.167,743.5 335.5,743.5C 335.289,741.576 334.623,741.243 333.5,742.5C 332.5,742.5 331.5,742.5 330.5,742.5C 330.53,741.503 330.03,740.836 329,740.5C 327.128,739.932 325.295,739.265 323.5,738.5C 322.893,738.624 322.56,738.957 322.5,739.5C 321.833,739.5 321.167,739.5 320.5,739.5C 314.757,735.842 308.423,733.009 301.5,731C 282.707,722.022 266.041,710.189 251.5,695.5 Z M 313.5,696.5 C 363.834,696.333 414.168,696.5 464.5,697C 462.937,698.736 461.27,700.236 459.5,701.5C 452.632,706.098 445.632,710.431 438.5,714.5C 438.167,714.5 437.833,714.5 437.5,714.5C 432.989,715.931 428.655,717.598 424.5,719.5C 423.833,719.5 423.167,719.5 422.5,719.5C 421.508,719.328 420.842,719.662 420.5,720.5C 416.779,720.911 413.112,721.578 409.5,722.5C 407.265,722.205 405.265,722.539 403.5,723.5C 402.5,723.5 401.5,723.5 400.5,723.5C 392.833,723.5 385.167,723.5 377.5,723.5C 376.5,723.5 375.5,723.5 374.5,723.5C 373.432,722.566 372.099,722.232 370.5,722.5C 369.5,722.5 368.5,722.5 367.5,722.5C 347.139,718.652 329.139,709.985 313.5,696.5 Z"/></g>
<g><path style="opacity:0.996" fill="#f8f8f8" d="M 570.5,697.5 C 562.03,726.577 552.363,755.244 541.5,783.5C 541.97,784.463 542.637,784.463 543.5,783.5C 543.833,783.5 544.167,783.5 544.5,783.5C 545.964,784.16 547.631,784.493 549.5,784.5C 551.64,784.444 553.306,783.777 554.5,782.5C 557.833,782.5 561.167,782.5 564.5,782.5C 566.304,783.162 568.304,783.495 570.5,783.5C 572.952,783.461 574.952,782.794 576.5,781.5C 579.5,781.5 582.5,781.5 585.5,781.5C 587.425,789.899 588.092,798.566 587.5,807.5C 550.833,807.5 514.167,807.5 477.5,807.5C 477.5,801.5 477.5,795.5 477.5,789.5C 479.781,789.923 481.448,789.256 482.5,787.5C 483.167,787.5 483.833,787.5 484.5,787.5C 485.601,788.598 486.934,788.765 488.5,788C 490.76,787.451 492.426,786.284 493.5,784.5C 493.833,784.5 494.167,784.5 494.5,784.5C 499.664,783.281 504.164,780.281 508,775.5C 512.641,769.869 515.808,763.869 517.5,757.5C 517.5,757.167 517.5,756.833 517.5,756.5C 518.497,756.53 519.164,756.03 519.5,755C 519.903,753.527 520.57,752.194 521.5,751C 521.272,750.601 520.938,750.435 520.5,750.5C 520.5,750.167 520.5,749.833 520.5,749.5C 522.881,747.088 524.548,744.088 525.5,740.5C 525.376,739.893 525.043,739.56 524.5,739.5C 524.5,739.167 524.5,738.833 524.5,738.5C 526.284,737.426 527.451,735.76 528,733.5C 529.888,727.392 532.055,721.392 534.5,715.5C 534.376,714.893 534.043,714.56 533.5,714.5C 533.5,714.167 533.5,713.833 533.5,713.5C 535.363,712.033 536.696,710.033 537.5,707.5C 537.376,706.893 537.043,706.56 536.5,706.5C 536.5,706.167 536.5,705.833 536.5,705.5C 537.497,705.53 538.164,705.03 538.5,704C 539.206,701.38 540.206,698.88 541.5,696.5C 551.483,695.334 561.483,695.168 571.5,696C 570.944,696.383 570.611,696.883 570.5,697.5 Z"/></g>
<g><path style="opacity:0.998" fill="#f8f8f8" d="M 792.5,695.5 C 793.864,697.22 794.864,699.22 795.5,701.5C 795.957,702.298 796.624,702.631 797.5,702.5C 797.5,702.833 797.5,703.167 797.5,703.5C 802.012,714.135 806.345,725.302 810.5,737C 810.836,738.03 811.503,738.53 812.5,738.5C 812.5,739.167 812.5,739.833 812.5,740.5C 811.485,741.46 811.485,742.627 812.5,744C 812.836,745.03 813.503,745.53 814.5,745.5C 814.5,746.167 814.5,746.833 814.5,747.5C 813.485,748.46 813.485,749.627 814.5,751C 814.836,752.03 815.503,752.53 816.5,752.5C 817.15,754.435 817.483,756.435 817.5,758.5C 816.903,758.735 816.57,759.235 816.5,760C 816.706,762.73 817.706,764.897 819.5,766.5C 819.5,767.167 819.5,767.833 819.5,768.5C 818.876,768.917 818.543,769.584 818.5,770.5C 818.747,771.713 819.414,772.38 820.5,772.5C 820.5,774.167 820.5,775.833 820.5,777.5C 819.371,779.628 819.204,781.961 820,784.5C 821.961,784.025 824.127,784.025 826.5,784.5C 828.64,784.444 830.306,783.777 831.5,782.5C 834.167,782.5 836.833,782.5 839.5,782.5C 841.265,783.461 843.265,783.795 845.5,783.5C 848.698,784.036 851.365,783.369 853.5,781.5C 854.833,781.5 856.167,781.5 857.5,781.5C 859.425,789.899 860.092,798.566 859.5,807.5C 814.5,807.5 769.5,807.5 724.5,807.5C 724.823,800.978 724.49,794.645 723.5,788.5C 724.568,787.566 725.901,787.232 727.5,787.5C 728.097,788.139 728.93,788.472 730,788.5C 731.376,788.316 732.209,787.649 732.5,786.5C 733.5,786.5 734.5,786.5 735.5,786.5C 735.735,787.097 736.235,787.43 737,787.5C 740.131,786.986 742.631,785.652 744.5,783.5C 744.833,783.5 745.167,783.5 745.5,783.5C 749.936,781.948 753.603,778.781 756.5,774C 756.272,773.601 755.938,773.435 755.5,773.5C 755.5,773.167 755.5,772.833 755.5,772.5C 756.497,772.53 757.164,772.03 757.5,771C 758.608,769.323 758.608,767.823 757.5,766.5C 757.5,764.833 757.5,763.167 757.5,761.5C 758.748,760.666 759.415,759.333 759.5,757.5C 759.194,754.468 758.694,751.468 758,748.5C 757.764,746.881 756.931,745.881 755.5,745.5C 755.5,744.833 755.5,744.167 755.5,743.5C 756.097,743.265 756.43,742.765 756.5,742C 751.455,727.029 746.122,712.196 740.5,697.5C 740.389,696.883 740.056,696.383 739.5,696C 757.164,695.5 774.83,695.333 792.5,695.5 Z"/></g>
<g><path style="opacity:0.333" fill="#737373" d="M 517.5,695.5 C 518.167,695.5 518.5,695.833 518.5,696.5C 516.833,698.833 514.833,700.833 512.5,702.5C 513.754,699.907 515.42,697.573 517.5,695.5 Z"/></g>
<g><path style="opacity:0.333" fill="#979797" d="M 248.5,694.5 C 249.167,694.5 249.833,694.5 250.5,694.5C 250.5,695.167 250.833,695.5 251.5,695.5C 266.041,710.189 282.707,722.022 301.5,731C 308.423,733.009 314.757,735.842 320.5,739.5C 292.586,730.554 268.586,715.554 248.5,694.5 Z"/></g>
<g><path style="opacity:0.333" fill="#9f9f9f" d="M 536.5,706.5 C 537.043,706.56 537.376,706.893 537.5,707.5C 536.696,710.033 535.363,712.033 533.5,713.5C 534.264,710.982 535.264,708.649 536.5,706.5 Z"/></g>
<g><path style="opacity:0.667" fill="#9e9e9e" d="M 459.5,701.5 C 459.833,701.5 460.167,701.5 460.5,701.5C 453.996,707.014 446.829,711.68 439,715.5C 438.601,715.272 438.435,714.938 438.5,714.5C 445.632,710.431 452.632,706.098 459.5,701.5 Z"/></g>
<g><path style="opacity:0.333" fill="#9a9a9a" d="M 509.5,704.5 C 506.729,707.392 503.729,710.058 500.5,712.5C 500.859,710.629 501.859,709.129 503.5,708C 505.624,706.878 507.457,705.378 509,703.5C 509.399,703.728 509.565,704.062 509.5,704.5 Z"/></g>
<g><path style="opacity:0.22" fill="#999999" d="M 310.5,695.5 C 311.791,695.263 312.791,695.596 313.5,696.5C 329.139,709.985 347.139,718.652 367.5,722.5C 345.454,720.246 326.454,711.246 310.5,695.5 Z"/></g>
<g><path style="opacity:0.5" fill="#9d9d9d" d="M 570.5,697.5 C 571.167,697.5 571.833,697.5 572.5,697.5C 563.563,725.976 554.23,754.309 544.5,782.5C 543.833,782.5 543.5,782.833 543.5,783.5C 542.637,784.463 541.97,784.463 541.5,783.5C 552.363,755.244 562.03,726.577 570.5,697.5 Z"/></g>
<g><path style="opacity:0.5" fill="#969696" d="M 437.5,714.5 C 433.982,717.035 429.982,719.035 425.5,720.5C 424.893,720.376 424.56,720.043 424.5,719.5C 428.655,717.598 432.989,715.931 437.5,714.5 Z"/></g>
<g><path style="opacity:0.553" fill="#737373" d="M 422.5,719.5 C 422.289,721.424 421.623,721.757 420.5,720.5C 420.842,719.662 421.508,719.328 422.5,719.5 Z"/></g>
<g><path style="opacity:0.5" fill="#8c8c8c" d="M 409.5,722.5 C 409.03,723.693 408.03,724.36 406.5,724.5C 405.274,724.48 404.274,724.147 403.5,723.5C 405.265,722.539 407.265,722.205 409.5,722.5 Z"/></g>
<g><path style="opacity:0.553" fill="#7c7c7c" d="M 370.5,722.5 C 372.099,722.232 373.432,722.566 374.5,723.5C 374.083,724.124 373.416,724.457 372.5,724.5C 371.287,724.253 370.62,723.586 370.5,722.5 Z"/></g>
<g><path style="opacity:0.5" fill="#939393" d="M 377.5,723.5 C 385.167,723.5 392.833,723.5 400.5,723.5C 397.062,724.823 393.229,725.49 389,725.5C 384.771,725.49 380.938,724.823 377.5,723.5 Z"/></g>
<g><path style="opacity:0.333" fill="#9a9a9a" d="M 738.5,697.5 C 739.167,697.5 739.833,697.5 740.5,697.5C 746.122,712.196 751.455,727.029 756.5,742C 756.43,742.765 756.097,743.265 755.5,743.5C 750.251,728.094 744.584,712.76 738.5,697.5 Z"/></g>
<g><path style="opacity:0.22" fill="#a2a2a2" d="M 797.5,703.5 C 803.838,714.518 808.838,726.185 812.5,738.5C 811.503,738.53 810.836,738.03 810.5,737C 806.345,725.302 802.012,714.135 797.5,703.5 Z"/></g>
<g><path style="opacity:0.333" fill="#9d9d9d" d="M 533.5,714.5 C 534.043,714.56 534.376,714.893 534.5,715.5C 532.055,721.392 529.888,727.392 528,733.5C 527.451,735.76 526.284,737.426 524.5,738.5C 527.129,730.27 530.129,722.27 533.5,714.5 Z"/></g>
<g><path style="opacity:0.22" fill="#959595" d="M 498.5,713.5 C 482.329,726.754 463.995,736.087 443.5,741.5C 443.47,740.503 443.97,739.836 445,739.5C 464.534,733.144 482.367,724.477 498.5,713.5 Z"/></g>
<g><path style="opacity:0.22" fill="#848484" d="M 330.5,742.5 C 327.603,741.871 324.936,740.871 322.5,739.5C 322.56,738.957 322.893,738.624 323.5,738.5C 325.295,739.265 327.128,739.932 329,740.5C 330.03,740.836 330.53,741.503 330.5,742.5 Z"/></g>
<g><path style="opacity:0.22" fill="#787878" d="M 335.5,743.5 C 334.508,743.672 333.842,743.338 333.5,742.5C 334.623,741.243 335.289,741.576 335.5,743.5 Z"/></g>
<g><path style="opacity:0.333" fill="#8e8e8e" d="M 441.5,741.5 C 436.427,743.435 431.094,744.768 425.5,745.5C 425.791,744.351 426.624,743.684 428,743.5C 432.04,742.657 436.04,741.657 440,740.5C 440.765,740.57 441.265,740.903 441.5,741.5 Z"/></g>
<g><path style="opacity:0.22" fill="#626262" d="M 339.5,744.5 C 338.508,744.672 337.842,744.338 337.5,743.5C 338.623,742.243 339.289,742.576 339.5,744.5 Z"/></g>
<g><path style="opacity:0.333" fill="#aaaaaa" d="M 524.5,739.5 C 525.043,739.56 525.376,739.893 525.5,740.5C 524.548,744.088 522.881,747.088 520.5,749.5C 521.658,746.011 522.991,742.678 524.5,739.5 Z"/></g>
<g><path style="opacity:0.333" fill="#8e8e8e" d="M 346.5,745.5 C 344.901,745.768 343.568,745.434 342.5,744.5C 342.917,743.876 343.584,743.543 344.5,743.5C 345.713,743.747 346.38,744.414 346.5,745.5 Z"/></g>
<g><path style="opacity:0.5" fill="#8d8d8d" d="M 812.5,740.5 C 813.537,741.93 814.204,743.597 814.5,745.5C 813.503,745.53 812.836,745.03 812.5,744C 811.485,742.627 811.485,741.46 812.5,740.5 Z"/></g>
<g><path style="opacity:0.22" fill="#737373" d="M 351.5,746.5 C 350.508,746.672 349.842,746.338 349.5,745.5C 350.623,744.243 351.289,744.576 351.5,746.5 Z"/></g>
<g><path style="opacity:0.5" fill="#9c9c9c" d="M 362.5,747.5 C 360.265,747.795 358.265,747.461 356.5,746.5C 357.274,745.853 358.274,745.52 359.5,745.5C 361.03,745.64 362.03,746.307 362.5,747.5 Z"/></g>
<g><path style="opacity:0.5" fill="#b4b4b4" d="M 375.5,748.5 C 371.958,748.813 368.625,748.479 365.5,747.5C 368.976,746.357 372.642,746.19 376.5,747C 375.944,747.383 375.611,747.883 375.5,748.5 Z"/></g>
<g><path style="opacity:0.333" fill="#727272" d="M 416.5,746.5 C 415.081,747.451 413.415,747.784 411.5,747.5C 411.791,746.351 412.624,745.684 414,745.5C 415.07,745.528 415.903,745.861 416.5,746.5 Z"/></g>
<g><path style="opacity:0.333" fill="#9f9f9f" d="M 406.5,747.5 C 402.366,748.485 398.032,748.818 393.5,748.5C 395.223,747.2 397.39,746.533 400,746.5C 402.361,746.504 404.527,746.837 406.5,747.5 Z"/></g>
<g><path style="opacity:0.5" fill="#939393" d="M 814.5,747.5 C 815.537,748.93 816.204,750.597 816.5,752.5C 815.503,752.53 814.836,752.03 814.5,751C 813.485,749.627 813.485,748.46 814.5,747.5 Z"/></g>
<g><path style="opacity:0.331" fill="#959595" d="M 520.5,750.5 C 520.938,750.435 521.272,750.601 521.5,751C 520.57,752.194 519.903,753.527 519.5,755C 519.164,756.03 518.497,756.53 517.5,756.5C 517.992,754.181 518.992,752.181 520.5,750.5 Z"/></g>
<g><path style="opacity:0.5" fill="#b3b3b3" d="M 755.5,745.5 C 756.931,745.881 757.764,746.881 758,748.5C 758.694,751.468 759.194,754.468 759.5,757.5C 759.415,759.333 758.748,760.666 757.5,761.5C 757.635,756.05 756.969,750.716 755.5,745.5 Z"/></g>
<g><path style="opacity:0.5" fill="#7f7f7f" d="M 817.5,758.5 C 818.768,760.905 819.435,763.572 819.5,766.5C 817.706,764.897 816.706,762.73 816.5,760C 816.57,759.235 816.903,758.735 817.5,758.5 Z"/></g>
<g><path style="opacity:0.5" fill="#a2a2a2" d="M 757.5,766.5 C 758.608,767.823 758.608,769.323 757.5,771C 757.164,772.03 756.497,772.53 755.5,772.5C 755.875,770.302 756.542,768.302 757.5,766.5 Z"/></g>
<g><path style="opacity:0.333" fill="#8b8b8b" d="M 819.5,768.5 C 820.434,769.568 820.768,770.901 820.5,772.5C 819.414,772.38 818.747,771.713 818.5,770.5C 818.543,769.584 818.876,768.917 819.5,768.5 Z"/></g>
<g><path style="opacity:0.667" fill="#7e7e7e" d="M 755.5,773.5 C 755.938,773.435 756.272,773.601 756.5,774C 753.603,778.781 749.936,781.948 745.5,783.5C 749.167,780.5 752.5,777.167 755.5,773.5 Z"/></g>
<g><path style="opacity:0.592" fill="#6f6f6f" d="M 820.5,777.5 C 821.451,778.919 821.784,780.585 821.5,782.5C 824.833,782.5 828.167,782.5 831.5,782.5C 830.306,783.777 828.64,784.444 826.5,784.5C 824.127,784.025 821.961,784.025 820,784.5C 819.204,781.961 819.371,779.628 820.5,777.5 Z"/></g>
<g><path style="opacity:0.667" fill="#b0b0b0" d="M 517.5,757.5 C 515.808,763.869 512.641,769.869 508,775.5C 504.164,780.281 499.664,783.281 494.5,784.5C 499.235,782.028 503.402,778.694 507,774.5C 511.027,769.104 514.527,763.438 517.5,757.5 Z"/></g>
<g><path style="opacity:0.5" fill="#909090" d="M 576.5,781.5 C 574.952,782.794 572.952,783.461 570.5,783.5C 568.304,783.495 566.304,783.162 564.5,782.5C 568.298,781.517 572.298,781.183 576.5,781.5 Z"/></g>
<g><path style="opacity:0.5" fill="#c0c0c0" d="M 845.5,781.5 C 848.167,781.5 850.833,781.5 853.5,781.5C 851.365,783.369 848.698,784.036 845.5,783.5C 845.5,782.833 845.5,782.167 845.5,781.5 Z"/></g>
<g><path style="opacity:0.602" fill="#8d8d8d" d="M 586.5,809.5 C 586.833,808.833 587.167,808.167 587.5,807.5C 588.092,798.566 587.425,789.899 585.5,781.5C 586.542,780.209 587.708,780.209 589,781.5C 589.667,790.5 589.667,799.5 589,808.5C 588.329,809.252 587.496,809.586 586.5,809.5 Z"/></g>
<g><path style="opacity:0.667" fill="#646464" d="M 845.5,781.5 C 845.5,782.167 845.5,782.833 845.5,783.5C 843.265,783.795 841.265,783.461 839.5,782.5C 841.265,781.539 843.265,781.205 845.5,781.5 Z"/></g>
<g><path style="opacity:0.667" fill="#8b8b8b" d="M 544.5,782.5 C 547.833,782.5 551.167,782.5 554.5,782.5C 553.306,783.777 551.64,784.444 549.5,784.5C 547.631,784.493 545.964,784.16 544.5,783.5C 544.5,783.167 544.5,782.833 544.5,782.5 Z"/></g>
<g><path style="opacity:0.333" fill="#949494" d="M 744.5,783.5 C 742.631,785.652 740.131,786.986 737,787.5C 736.235,787.43 735.735,787.097 735.5,786.5C 738.341,785.331 741.341,784.331 744.5,783.5 Z"/></g>
<g><path style="opacity:0.667" fill="#9d9d9d" d="M 493.5,784.5 C 492.426,786.284 490.76,787.451 488.5,788C 486.934,788.765 485.601,788.598 484.5,787.5C 487.443,786.633 490.443,785.633 493.5,784.5 Z"/></g>
<g><path style="opacity:0.553" fill="#646464" d="M 732.5,786.5 C 732.209,787.649 731.376,788.316 730,788.5C 728.93,788.472 728.097,788.139 727.5,787.5C 728.919,786.549 730.585,786.216 732.5,786.5 Z"/></g>
<g><path style="opacity:0.333" fill="#cacaca" d="M 482.5,787.5 C 481.448,789.256 479.781,789.923 477.5,789.5C 477.5,795.5 477.5,801.5 477.5,807.5C 514.167,807.5 550.833,807.5 587.5,807.5C 587.167,808.167 586.833,808.833 586.5,809.5C 549.832,809.667 513.165,809.5 476.5,809C 475.355,802.248 475.189,795.414 476,788.5C 478.041,787.577 480.208,787.244 482.5,787.5 Z"/></g>
<g><path style="opacity:0.333" fill="#c1c1c1" d="M 723.5,788.5 C 724.49,794.645 724.823,800.978 724.5,807.5C 769.5,807.5 814.5,807.5 859.5,807.5C 860.092,798.566 859.425,789.899 857.5,781.5C 858.542,780.209 859.708,780.209 861,781.5C 861.817,790.745 861.65,799.911 860.5,809C 814.833,809.667 769.167,809.667 723.5,809C 722.173,802.068 722.173,795.235 723.5,788.5 Z"/></g>
</svg>
